<svg width="142" height="100" viewBox="0 0 142 100" fill="none" xmlns="http://www.w3.org/2000/svg">
<path d="M57.2025 47.5607C57.2025 47.6556 57.2025 47.7584 57.2025 47.8532C57.2025 48.3039 57.1708 48.7624 57.1152 49.2209L56.8297 49.4028C56.8059 49.5925 56.7742 49.7822 56.7425 49.972H57.0042C56.9011 50.557 56.7583 51.1499 56.5759 51.7508L56.2904 51.8535C56.2269 52.0512 56.1635 52.2567 56.0921 52.4544L56.3142 52.5334C56.1 53.1422 55.8462 53.743 55.5607 54.3359H55.2989C55.2037 54.5415 55.1006 54.7391 54.9975 54.9368L55.1641 55.1028C54.8547 55.6878 54.5058 56.257 54.1409 56.8025L53.9188 56.7235C53.7919 56.9053 53.665 57.0871 53.5302 57.269L53.6333 57.514C53.2446 58.0358 52.8322 58.5339 52.4039 59.0003L52.2373 58.8343C52.0866 58.9924 51.9438 59.1505 51.7852 59.3007L51.8249 59.6012C51.3886 60.0281 50.9286 60.4313 50.4606 60.787L50.3575 60.5419C50.1989 60.6605 50.0403 60.7791 49.8737 60.8898L49.842 61.2376C49.612 61.3958 49.374 61.546 49.1361 61.6804C48.8981 61.8148 48.6681 61.9413 48.4301 62.044L48.3984 61.7357C48.2398 61.8148 48.0732 61.878 47.9146 61.9412L47.8115 62.3049C47.4704 62.4393 47.1452 62.5342 46.82 62.6132L48.1446 64.0442L47.5418 64.3604L46.1776 63.641L46.0189 63.7042L41.4028 61.7673C41.1807 61.6645 39.9354 60.2336 39.7371 60.0913L39.7688 60.0202L39.3405 59.7751C39.055 59.5063 38.8091 59.198 38.587 58.8343L38.7457 58.5892L38.3253 58.352C38.1429 57.9647 38.0001 57.5299 37.897 57.0555L38.1587 56.763C38.1508 56.7235 38.1429 56.676 38.1349 56.6365L37.7859 56.4389C37.7304 56.0357 37.6987 55.6167 37.6987 55.166C37.6987 55.0633 37.6987 54.9684 37.6987 54.8656L37.9842 54.6443C37.9842 54.5336 37.9922 54.4229 38.0001 54.3122L37.7383 54.162C37.7859 53.5849 37.8811 52.9999 38.016 52.4069L38.3015 52.2646C38.3412 52.1065 38.3808 51.9484 38.4205 51.7824L38.1984 51.6559C38.3649 51.0471 38.5712 50.4384 38.817 49.8297L39.0867 49.7743C39.166 49.5846 39.2454 49.3949 39.3247 49.213L39.1264 49.0865C39.3961 48.4778 39.7054 47.8849 40.0385 47.3077L40.2844 47.3473C40.3875 47.1733 40.4985 46.9994 40.6017 46.8255L40.4589 46.6199C40.8158 46.0586 41.2045 45.5131 41.6169 44.9914L41.8231 45.11C41.9421 44.9597 42.069 44.8095 42.1959 44.6672L42.1245 44.3905C42.5449 43.9004 42.997 43.4418 43.457 43.0228L43.687 43.1572C43.7981 43.0624 43.9012 42.9675 44.0122 42.8726V42.5406C44.4723 42.1611 44.9482 41.8212 45.432 41.5207L45.7017 41.6789C45.7017 41.6789 45.7096 41.6789 45.7175 41.671C45.7889 41.6314 45.8603 41.5919 45.9317 41.5524L46.0031 41.1887C46.4869 40.9278 46.9628 40.7223 47.4228 40.5721L47.8036 40.7934C47.8036 40.7934 47.8273 40.7934 47.8353 40.7855L47.9701 40.4139C48.4301 40.3033 48.8822 40.2479 49.3026 40.2479L49.8102 40.2716C50.2227 40.3112 52.4911 41.497 52.856 41.6472L53.2605 41.8765L53.2843 41.8449L57.6863 44.3747L58.535 46.6595L56.8614 45.6238C56.9725 46.0191 57.0518 46.4381 57.0994 46.8966L56.8297 47.1575C56.8456 47.3236 56.8535 47.4896 56.8614 47.6635L57.147 47.5607H57.2025ZM56.7821 45.5369L56.5045 45.3629C56.5362 45.4578 56.5759 45.5527 56.5997 45.6475L56.7821 45.529V45.5369Z" fill="#481018"/>
<path d="M51.0238 40.7142L53.3954 42.2874L57.3294 44.169L56.1714 43.8765L52.3167 42.2163L49.8817 40.2635L51.0238 40.7142Z" fill="#4F1F26"/>
<path d="M40.0941 47.2994L42.0929 50.2404L46.3839 50.9203L45.4638 52.6991L41.157 52.0033L39.182 49.0861L39.6182 48.177L40.0941 47.2994Z" fill="#4F1F26"/>
<path d="M38.8646 49.8299L41.1885 52.7708L45.1464 53.4428L44.5357 55.269L40.5461 54.5812L38.2459 51.6482L38.4997 50.826L38.8646 49.8299Z" fill="#4F1F26"/>
<path d="M38.0637 52.3994L40.2528 55.3324L44.3455 56.0202L44.0758 57.7674L39.9514 57.0717L37.7861 54.1545L37.8733 53.3718L38.0637 52.3994Z" fill="#4F1F26"/>
<path d="M37.7464 54.8584L39.8642 57.7282L44.0362 58.4713L44.1076 60.0525L39.9118 59.2856L37.8257 56.4316L37.7464 55.7517V54.8584Z" fill="#4F1F26"/>
<path d="M37.9366 57.0475L39.7926 59.5931L44.2185 60.6683L44.6468 61.9648L40.094 60.6367L38.3649 58.3519L38.127 57.8143L37.9366 57.0475Z" fill="#4F1F26"/>
<path d="M38.6189 58.8346L40.7049 60.8427L44.9086 62.4475L45.6542 63.3883L41.4346 61.7676L39.3724 59.7675L38.9679 59.3722L38.6189 58.8346Z" fill="#4F1F26"/>
<path d="M41.6806 44.983L43.6794 47.9161L47.9704 48.596L46.8044 50.2245L42.4976 49.5288L40.5226 46.6037L41.1016 45.7499L41.6806 44.983Z" fill="#4F1F26"/>
<path d="M43.5207 43.0065L45.5195 45.9475L49.8025 46.6274L48.47 47.995L44.1552 47.2993L42.1882 44.3742L42.791 43.6943L43.5207 43.0065Z" fill="#4F1F26"/>
<path d="M45.4956 41.5049L47.4943 44.4459L51.7853 45.1258L50.3576 46.1456L46.0508 45.4499L44.0758 42.5248L44.6865 42.0346L45.4956 41.5049Z" fill="#4F1F26"/>
<path d="M47.4943 40.5643L49.2869 43.0072L53.7762 44.1772L52.3564 44.7939L47.8433 43.6159L46.0666 41.181L46.6932 40.8489L47.4943 40.5643Z" fill="#4F1F26"/>
<path d="M49.3823 40.2402L51.3334 42.2166L55.6641 43.8531L54.3316 44.0191L50.104 42.683L48.0498 40.4062L48.7795 40.2718L49.3823 40.2402Z" fill="#4F1F26"/>
<path d="M56.0842 43.9405L58.9872 45.4821L58.2178 46.6601L56.0842 45.4584V43.9405Z" fill="#481018"/>
<path d="M56.8853 45.4659L59.7883 47.134L59.0189 48.304L56.8853 47.1024V45.4659Z" fill="#481018"/>
<path d="M57.2026 47.5608L60.1056 49.2289L59.3362 50.4069L57.2026 49.2052V47.5608Z" fill="#481018"/>
<path d="M57.0124 49.9638L59.9153 51.6319L59.146 52.8099L57.0124 51.6082V49.9638Z" fill="#481018"/>
<path d="M56.3302 52.5417L59.2331 54.2099L58.4638 55.3799L56.3302 54.1782V52.5417Z" fill="#481018"/>
<path d="M44.1075 60.0524C44.052 59.6492 44.0203 59.2302 44.0203 58.7796C44.0203 58.6768 44.0203 58.5819 44.0203 58.4792L44.3058 58.2578C44.3058 58.0839 44.3217 57.902 44.3375 57.7202L44.0679 57.7755C44.1154 57.1984 44.2106 56.6134 44.3455 56.0205L44.631 55.8782C44.6707 55.6884 44.7182 55.4987 44.7738 55.309L44.5279 55.2694C44.6944 54.6607 44.9007 54.0519 45.1465 53.4432L45.4162 53.3879C45.4955 53.1981 45.5749 53.0084 45.6542 52.8266L45.4559 52.7001C45.7256 52.0913 46.0349 51.4984 46.368 50.9213L46.6139 50.9608C46.717 50.7869 46.828 50.6129 46.9312 50.439L46.7884 50.2335C47.1453 49.6722 47.534 49.1267 47.9464 48.6049L48.1447 48.7314C48.2716 48.5733 48.3985 48.4231 48.5254 48.2729L48.454 47.9962C48.8744 47.506 49.3265 47.0475 49.7865 46.6285L49.9214 46.834C50.0562 46.7075 50.199 46.5889 50.3417 46.4703V46.1383C50.8018 45.7588 51.2777 45.4189 51.7615 45.1185L51.8329 45.3952C51.9043 45.3556 51.9757 45.3082 52.047 45.2687C52.1184 45.2291 52.1898 45.1896 52.2612 45.1501L52.3326 44.7864C52.8164 44.5255 53.2923 44.32 53.7523 44.1698V44.5018C53.8951 44.4544 54.0299 44.4149 54.1727 44.3832L54.3075 44.0117C54.7676 43.901 55.2197 43.8456 55.6401 43.8456L55.5687 44.2093C55.6956 44.2093 55.8225 44.2093 55.9494 44.2251L56.1477 43.8694C56.5601 43.9089 56.9488 44.0117 57.3057 44.1619L57.1709 44.5255C57.2819 44.573 57.385 44.6204 57.4881 44.6837L57.734 44.3674C58.0671 44.5572 58.3765 44.8022 58.6461 45.0947L58.4478 45.4426C58.5351 45.5375 58.6144 45.6323 58.6858 45.7272L58.9555 45.4663C59.1934 45.7905 59.4076 46.162 59.5741 46.581L59.3283 46.8973C59.3758 47.0317 59.4234 47.166 59.471 47.3084L59.7566 47.1186C59.8914 47.5613 59.9786 48.0357 60.0342 48.5575L59.7645 48.8183C59.7804 48.9844 59.7883 49.1504 59.7962 49.3243L60.0818 49.2215C60.0818 49.3164 60.0818 49.4192 60.0818 49.5141C60.0818 49.9647 60.05 50.4232 59.9945 50.8817L59.709 51.0636C59.6852 51.2533 59.6534 51.443 59.6217 51.6328H59.8835C59.7804 52.2178 59.6376 52.8107 59.4552 53.4116L59.1696 53.5144C59.1062 53.712 59.0427 53.9175 58.9713 54.1152L59.1934 54.1942C58.9793 54.803 58.7255 55.4038 58.4399 55.9968H58.1782C58.083 56.2023 57.9799 56.3999 57.8768 56.5976L58.0433 56.7636C57.734 57.3486 57.385 57.9178 57.0202 58.4633L56.7981 58.3843C56.6712 58.5661 56.5443 58.7479 56.4094 58.9298L56.5125 59.1749C56.1239 59.6966 55.7114 60.1947 55.2831 60.6611L55.1166 60.4951C54.9659 60.6532 54.8231 60.8113 54.6645 60.9616L54.7041 61.262C54.2679 61.6889 53.8079 62.0921 53.3399 62.4478L53.2368 62.2028C53.0781 62.3213 52.9195 62.4399 52.753 62.5506L52.7212 62.8985C52.4912 63.0566 52.2533 63.2068 52.0153 63.3412C51.7774 63.4756 51.5473 63.6021 51.3094 63.7048L51.2777 63.3965C51.119 63.4756 50.9525 63.5388 50.7938 63.6021L50.6907 63.9657C50.2228 64.1476 49.7627 64.2741 49.3265 64.3452L49.3662 63.9973C49.2155 64.0211 49.0648 64.0369 48.9141 64.0527L48.7475 64.4164C48.3192 64.448 47.9067 64.4164 47.5181 64.3452L47.6212 63.9736C47.4864 63.942 47.3595 63.9104 47.2326 63.8709L47.0105 64.2108C46.6377 64.0843 46.2966 63.9104 45.9873 63.689L46.1539 63.3254C46.0507 63.2463 45.9476 63.1672 45.8525 63.0803L45.5907 63.3728C45.3052 63.104 45.0593 62.7957 44.8372 62.432L45.0593 62.0921C44.9879 61.9735 44.9245 61.847 44.861 61.7205L44.5755 61.9419C44.393 61.5545 44.2503 61.1197 44.1472 60.6453L44.4089 60.3528C44.3772 60.2026 44.3455 60.0445 44.3217 59.8785L44.0361 60.0208L44.1075 60.0524Z" fill="#67383F"/>
<path d="M46.9547 63.2212C44.0843 61.5487 44.1124 56.1777 47.0173 51.2247C49.9222 46.2718 54.604 43.6124 57.4743 45.2849C60.3446 46.9574 60.3166 52.3284 57.4117 57.2813C54.5067 62.2343 49.825 64.8937 46.9547 63.2212Z" fill="#5C2930"/>
<path d="M46.4947 57.5379C46.4947 61.1429 49.0487 62.5976 52.2055 60.7872C55.3623 58.9688 57.9162 54.5733 57.9162 50.9682C57.9162 47.3632 55.3623 45.9086 52.2055 47.719C49.0487 49.5373 46.4947 53.9329 46.4947 57.5379Z" fill="#67383F"/>
<path d="M47.0979 57.0085C47.0979 60.1471 49.3187 61.412 52.0631 59.8308C54.8074 58.2497 57.0282 54.4312 57.0282 51.2926C57.0282 48.1541 54.8074 46.8892 52.0631 48.4703C49.3187 50.0514 47.0979 53.8699 47.0979 57.0085Z" fill="#E89E00"/>
<path d="M56.6155 51.5375C56.6155 54.4073 54.5771 57.9095 52.0707 59.3563C49.5564 60.803 47.5259 59.6409 47.5259 56.7711C47.5259 53.9013 49.5643 50.3991 52.0707 48.9524C54.585 47.5056 56.6155 48.6677 56.6155 51.5375Z" fill="#BF5900"/>
<path d="M56.6155 51.5375C56.6155 54.4073 54.5771 57.9095 52.0707 59.3563C49.5564 60.803 47.5259 59.6409 47.5259 56.7711C47.5259 53.9013 49.5643 50.3991 52.0707 48.9524C54.585 47.5056 56.6155 48.6677 56.6155 51.5375ZM56.1475 51.6956C56.1475 49.0235 54.2519 47.9404 51.9121 49.2923C49.5722 50.6363 47.6766 53.8934 47.6766 56.5735C47.6766 59.2535 49.5722 60.3287 51.9121 58.9768C54.2519 57.6328 56.1475 54.3757 56.1475 51.6956Z" fill="#E68F00"/>
<path d="M54.7439 51.8058C54.7439 53.9483 53.2289 56.5493 51.3571 57.6323C49.628 58.6285 48.2003 57.9644 47.9941 56.1619C47.9782 56.0196 47.9703 55.8615 47.9703 55.7033C47.9703 54.2566 48.6603 52.6043 49.6835 51.3473C50.1753 50.7385 50.7463 50.2326 51.3571 49.8768C53.2289 48.8016 54.7439 49.6634 54.7439 51.7979V51.8058Z" fill="#DE7200"/>
<path d="M48.3985 54.8811C48.3985 54.9365 48.3985 54.9918 48.3985 55.0471C48.4144 55.3871 48.4937 55.6717 48.6127 55.901C48.7237 56.1223 48.8823 56.2883 49.0727 56.4069C49.1124 56.4306 49.7786 56.8101 49.8183 56.8259C50.2466 57.0236 50.1752 56.6046 50.8018 56.2488C52.1343 55.482 53.213 53.6241 53.213 52.0983C53.213 51.3473 53.6413 51.2129 53.213 50.9599C53.1733 50.9362 52.4436 50.5251 52.396 50.5013C52.3722 50.4934 52.3564 50.4776 52.3326 50.4776C51.9995 50.3511 51.5949 50.3749 51.1428 50.5567C51.0318 50.6041 50.9128 50.6595 50.7939 50.7306C49.7786 51.3156 48.9141 52.5331 48.5571 53.7427C48.4858 53.9957 48.4302 54.2487 48.4064 54.4937C48.3906 54.6202 48.3827 54.7546 48.3827 54.8732L48.3985 54.8811Z" fill="#380009"/>
<path d="M49.0807 55.2689C49.0807 55.3243 49.0807 55.3796 49.0807 55.435C49.0966 55.7749 49.1759 56.0595 49.2948 56.2888C49.6756 57.0161 50.5084 57.19 51.484 56.6366C52.8165 55.8698 53.8952 54.0119 53.8952 52.4861C53.8952 51.6639 53.5779 51.1105 53.0782 50.8892C53.0544 50.8813 53.0386 50.8654 53.0148 50.8654C52.6816 50.7389 52.2771 50.7627 51.825 50.9445C51.714 50.9919 51.595 51.0473 51.476 51.1184C50.4608 51.7035 49.5962 52.9209 49.2393 54.1305C49.1679 54.3835 49.1124 54.6365 49.0886 54.8816C49.0728 55.008 49.0648 55.1424 49.0648 55.261L49.0807 55.2689Z" fill="#543A3E"/>
<path d="M50.064 54.304C50.064 54.6123 50.1592 54.8495 50.3099 54.9839C50.524 55.1736 51.23 55.5689 51.23 55.5689L52.8877 52.7307C52.8877 52.7307 52.3007 52.3987 52.1421 52.2643C51.9279 52.0825 51.6027 52.0825 51.23 52.288C50.5875 52.6596 50.064 53.5608 50.064 54.2961V54.304Z" fill="#380009"/>
<path d="M50.881 54.8178C50.881 55.5531 51.4045 55.8535 52.0469 55.4819C52.6894 55.1103 53.2129 54.2091 53.2129 53.4739C53.2129 52.7386 52.6894 52.4382 52.0469 52.8098C51.4045 53.1813 50.881 54.0826 50.881 54.8178Z" fill="#63474B"/>
<path d="M51.4919 54.4544C51.4919 54.5888 51.5316 54.6836 51.595 54.7469C51.6823 54.8259 51.9043 54.9366 51.9043 54.9366L52.6103 53.7349C52.6103 53.7349 52.4437 53.648 52.3723 53.5926C52.2851 53.5136 52.1423 53.5136 51.9837 53.6005C51.714 53.7587 51.4919 54.1381 51.4919 54.4544Z" fill="#380009"/>
<path d="M51.7535 54.6124C51.7535 54.9287 51.9756 55.0552 52.2453 54.897C52.5149 54.7389 52.737 54.3595 52.737 54.0432C52.737 53.727 52.5149 53.6005 52.2453 53.7586C51.9756 53.9167 51.7535 54.2962 51.7535 54.6124Z" fill="#786266"/>
<path d="M85.1772 19.298V22.6105L86.0735 22.8002L84.6696 28.4212L77.8484 32.3661L71.6301 39.8687L67.3232 68.5902L42.8463 54.5022L41.0062 52.1305L45.432 40.177L74.3189 22.5314L85.1772 19.298Z" fill="#033A1D"/>
<path d="M42.9257 59.5224L43.0526 61.989L52.1739 67.2305L55.4893 60.4711L46.3759 55.2217L42.3625 58.1468L42.9257 59.5224Z" fill="#049649"/>
<path d="M42.3626 58.1462L51.476 63.3956L52.0471 64.7712L52.174 67.2299L43.0526 61.9884L42.9257 59.5218L42.3626 58.1462Z" fill="#01602E"/>
<path d="M52.8085 62.5584L43.5444 57.2932L46.4156 55.1903L55.4893 60.4713L52.8085 62.5584Z" fill="#007E3C"/>
<path d="M52.0471 64.7711L52.174 67.2297L53.2606 67.0874L57.5199 61.4427L55.4894 60.4703L51.476 63.3955L52.0471 64.7711Z" fill="#007E3C"/>
<path d="M44.7735 41.5375C44.7735 41.5375 54.1883 35.6477 57.2023 35.9877C62.0723 36.5411 62.3341 41.5059 62.3341 41.5059L73.7794 32.8807C73.7794 32.8807 76.1192 26.3031 82.06 22.8404C87.2869 19.7967 88.6908 21.5834 88.6908 21.5834C88.6908 21.5834 91.1892 19.7414 91.4668 18.8638C91.7444 17.9784 87.7549 10.0569 87.7549 10.0569L87.0886 8.38875L84.5267 9.58252L83.7573 9.17932L82.3614 3.3449L81.8617 2.11951C81.8617 2.11951 79.0856 3.47929 75.8178 5.23436C72.55 6.99734 65.9826 10.8949 65.9826 10.8949C65.9826 10.8949 59.8673 14.7371 54.1011 19.2591C48.43 23.7101 45.4794 26.904 45.3922 27.0068L45.2494 28.9041L44.7973 41.5375H44.7735Z" fill="#D1D1D1"/>
<path d="M108.068 17.6385L81.8461 2.11951L57.4723 19.3382L44.7738 41.5375L70.9957 57.0564L108.068 17.6385Z" fill="#E5E5E5"/>
<path d="M84.1382 17.622L88.1437 15.4559V20.8081L85.328 22.4287L84.1382 17.622Z" fill="#0093D5"/>
<path d="M70.9401 9.59766L87.7234 19.2506L66.8236 54.6603L50.0403 44.9995L51.0397 22.7923L51.8884 20.2625L70.9401 9.59766Z" fill="#049649"/>
<path d="M51.7774 22.7205L38.5475 31.5591L38.3254 32.4999L38.6982 34.255L38.8885 33.4644L42.4895 51.276L42.3467 51.5606L42.9971 54.1221L43.7427 55.1261L57.5754 62.9291L58.6541 56.897L51.357 45.9159L51.587 23.2818L51.7774 22.7205Z" fill="#00AA51"/>
<path d="M56.1792 59.3557L56.8296 61.9172L42.9969 54.1221L42.3465 51.5607L56.1792 59.3557Z" fill="#049649"/>
<path d="M40.6333 30.9577L50.064 25.3209L50.286 45.7889L44.8212 49.0935L44.2263 49.7022L42.4893 51.2754L38.8883 33.4638L40.7919 32.3017L40.6333 30.9577Z" fill="#007E3C"/>
<path d="M41.347 31.101L44.8607 48.5726L49.8656 45.6949L49.5721 26.1678L41.347 31.101Z" fill="#7E7E7E"/>
<path d="M40.9109 33.0377L44.3136 49.1733L42.4179 50.9837L38.9835 34.0575L40.9109 33.0377Z" fill="#7E7E7E"/>
<path d="M87.7233 19.2507L89.5158 25.5041L91.7525 39.5526L66.8235 54.6604L67.8229 32.4532L68.6636 29.9155L87.7233 19.2507Z" fill="#01602E"/>
<path d="M66.8236 54.6525C66.8236 54.6525 72.804 50.5415 75.818 50.8814C80.688 51.4428 80.9498 56.3996 80.9498 56.3996L92.3871 47.7745C92.3871 47.7745 94.7269 41.1969 100.668 37.7342C105.895 34.6826 107.299 36.4693 107.299 36.4693C107.299 36.4693 109.797 34.6352 110.083 33.7497C110.36 32.8643 109.805 27.3461 109.805 27.3461L109.131 25.678L106.569 26.8796L105.799 22.2943L108.068 17.6299L107.838 17.4955L105.95 16.4045L105.633 16.2306L105.554 16.1753L104.871 15.78L104.8 15.7326L104.562 15.5982L104.388 15.5033L103.928 15.2345L103.896 15.2187C103.896 15.2187 103.61 15.361 103.103 15.614C102.048 16.1358 100.057 17.1556 97.8441 18.3415C94.5683 20.0965 88.0009 24.002 88.0009 24.002C88.0009 24.002 81.8857 27.8441 76.1194 32.3741C70.4483 36.8251 67.4978 40.019 67.4105 40.1138L67.2677 46.2013L66.8077 54.6446L66.8236 54.6525Z" fill="#D1D1D1"/>
<path d="M67.4185 40.1296L73.8828 38.2243L84.408 29.7573L87.4062 29.5912L91.4751 26.8796L81.9492 28.0812C81.9492 28.0812 71.0433 35.7103 67.4185 40.1296Z" fill="#999999"/>
<g style="mix-blend-mode:multiply">
<path d="M104.348 17.7803H104.356L104.689 17.7565L107.838 17.5115L105.95 16.4126H105.553L105.458 16.4047L104.475 16.3889L104.443 16.7525L104.435 16.8316L104.348 17.7803Z" fill="#ABABAB"/>
</g>
<path d="M105.641 16.239L103.055 16.1995V17.1402C103.039 17.2984 103.158 17.4565 103.396 17.583C103.88 17.828 104.697 17.8439 105.228 17.6146C105.49 17.496 105.633 17.3379 105.641 17.1798V16.239Z" fill="#B6D1D3"/>
<path d="M105.522 13.8912L103.293 13.8675L103.055 16.1997C103.039 16.3578 103.158 16.5159 103.396 16.6424C103.88 16.8875 104.697 16.9033 105.228 16.674C105.49 16.5554 105.633 16.3973 105.641 16.2392L105.522 13.8912Z" fill="#DB6600"/>
<path d="M105.22 13.5113C104.8 13.2978 104.094 13.282 103.642 13.4875C103.19 13.6852 103.158 14.0251 103.578 14.2386C103.999 14.452 104.705 14.4678 105.157 14.2623C105.609 14.0647 105.641 13.7247 105.22 13.5113Z" fill="#FFAB1E"/>
<path d="M105.236 15.7954C104.784 15.5662 104.023 15.5503 103.539 15.7717C103.047 15.9852 103.023 16.3488 103.467 16.5781C103.92 16.8074 104.681 16.8232 105.165 16.6018C105.649 16.3884 105.68 16.0247 105.236 15.7954Z" fill="#FFA000"/>
<path d="M104.015 14.9183C103.896 15.2267 103.848 15.7326 103.975 16.0172C104.094 16.3098 104.641 16.2228 104.752 15.9145C104.871 15.6061 104.832 15.4401 104.713 15.1476C104.594 14.8551 104.134 14.6021 104.015 14.9104V14.9183Z" fill="#FFA000"/>
<path d="M104.451 15.1798C104.356 15.496 104.356 15.9467 104.459 16.1838C104.562 16.421 104.721 16.3498 104.824 16.0257C104.919 15.7095 104.919 15.2589 104.816 15.0217C104.713 14.7924 104.554 14.8557 104.451 15.1798Z" fill="#FFAB1E"/>
<path d="M91.1577 8.52228L82.2664 13.6452V17.5822L92.3316 23.8752L101.429 14.7046L91.1577 8.52228Z" fill="#00AA51"/>
<path d="M92.3316 19.9382L82.2664 13.6453V17.5823L92.3316 23.8753V19.9382Z" fill="#049649"/>
<path d="M109.654 33.3776V36.698L110.551 36.8877L109.147 42.5087L102.326 46.4536L96.1072 53.9562L78.4515 64.5578L67.3235 68.5897L65.4833 66.218L69.9092 54.2645L98.7961 36.611L109.654 33.3776Z" fill="#241415"/>
<path d="M85.0744 62.5504C85.0744 62.6453 85.0744 62.748 85.0744 62.8429C85.0744 63.2935 85.0427 63.7521 84.9871 64.2106L84.7016 64.3924C84.6778 64.5822 84.6461 64.7719 84.6144 64.9617H84.8761C84.773 65.5467 84.6302 66.1396 84.4478 66.7404L84.1622 66.8432C84.0988 67.0409 84.0353 67.2464 83.964 67.4441L84.186 67.5231C83.9719 68.1319 83.7181 68.7327 83.4325 69.3256H83.1708C83.0756 69.5312 82.9725 69.7288 82.8694 69.9265L83.036 70.0925C82.7266 70.6775 82.3776 71.2467 82.0128 71.7922L81.7907 71.7131C81.6638 71.895 81.5369 72.0768 81.4021 72.2586L81.5052 72.5037C81.1165 73.0255 80.7041 73.5236 80.2758 73.99L80.1092 73.824C79.9585 73.9821 79.8157 74.1402 79.6571 74.2904L79.6968 74.5908C79.2605 75.0177 78.8005 75.4209 78.3325 75.7767L78.2294 75.5316C78.0708 75.6502 77.9121 75.7688 77.7456 75.8795L77.7139 76.2273C77.4838 76.3854 77.2459 76.5356 77.0079 76.67C76.77 76.8044 76.54 76.9309 76.302 77.0337L76.2703 76.7254C76.1117 76.8044 75.9451 76.8677 75.7865 76.9309L75.6834 77.2946C75.3423 77.429 75.0171 77.5239 74.6919 77.6029L76.0165 79.0339L75.4137 79.3501L74.0495 78.6307L73.8908 78.6939L69.2746 76.757C69.0526 76.6542 67.7994 75.2233 67.609 75.081L67.6407 75.0098L67.2124 74.7648C66.9269 74.496 66.681 74.1876 66.4589 73.824L66.6175 73.5789L66.1972 73.3417C66.0147 72.9543 65.872 72.5195 65.7689 72.0452L66.0306 71.7527C66.0227 71.7132 66.0147 71.6657 66.0068 71.6262L65.6578 71.4285C65.6023 71.0253 65.5706 70.6063 65.5706 70.1557C65.5706 70.0529 65.5706 69.9581 65.5706 69.8553L65.8561 69.6339C65.8561 69.5233 65.864 69.4126 65.872 69.3019L65.6102 69.1517C65.6578 68.5746 65.753 67.9896 65.8878 67.3966L66.1734 67.2543C66.213 67.0962 66.2527 66.9381 66.2924 66.78L66.0703 66.6535C66.2368 66.0447 66.4431 65.436 66.6889 64.8273L66.9586 64.7719C67.0379 64.5822 67.1172 64.3924 67.1966 64.2106L66.9983 64.0841C67.2679 63.4754 67.5773 62.8824 67.9104 62.3053L68.1563 62.3449C68.2594 62.1709 68.3704 61.997 68.4735 61.8231L68.3308 61.6175C68.6877 61.0562 69.0763 60.5107 69.4888 59.9889L69.695 60.1075C69.814 59.9573 69.9409 59.8071 70.0678 59.6648L69.9964 59.3881C70.4168 58.898 70.8689 58.4394 71.3289 58.0204L71.5589 58.1548C71.67 58.06 71.7731 57.9651 71.8841 57.8702V57.5382C72.3442 57.1587 72.8201 56.8188 73.3039 56.5183L73.5736 56.6765C73.5736 56.6765 73.5815 56.6765 73.5894 56.6765C73.6608 56.6369 73.7322 56.5974 73.8036 56.5579L73.875 56.1942C74.3588 55.9333 74.8347 55.7278 75.2947 55.5776L75.6754 55.7989C75.6754 55.7989 75.6992 55.7989 75.7072 55.791L75.842 55.4194C76.302 55.3088 76.7541 55.2534 77.1745 55.2534L77.6821 55.2771C78.0946 55.3167 80.363 56.5025 80.7279 56.6527L81.1324 56.882L81.1562 56.8504L85.5582 59.3802L86.4069 61.665L84.7333 60.6293C84.8444 61.0246 84.9237 61.4436 84.9713 61.9021L84.7016 62.163C84.7175 62.329 84.7254 62.4951 84.7333 62.669L85.0189 62.5662L85.0744 62.5504ZM84.654 60.5265L84.3764 60.3526C84.4081 60.4475 84.4478 60.5423 84.4716 60.6372L84.654 60.5186V60.5265Z" fill="#481018"/>
<path d="M78.8874 55.7041L81.2669 57.2695L85.201 59.1589L84.035 58.8664L80.1803 57.2062L77.7532 55.2456L78.8874 55.7041Z" fill="#4F1F26"/>
<path d="M67.9658 62.2889L69.9645 65.2299L74.2476 65.9019L73.3355 67.6886L69.0207 66.9928L67.0536 64.0677L67.4899 63.1586L67.9658 62.2889Z" fill="#4F1F26"/>
<path d="M66.7365 64.8115L69.0525 67.7604L73.0183 68.4323L72.3996 70.2586L68.4179 69.5708L66.1178 66.6377L66.3716 65.8076L66.7365 64.8115Z" fill="#4F1F26"/>
<path d="M65.9352 67.3888L68.1243 70.3139L72.217 71.0017L71.9394 72.7568L67.8229 72.0532L65.6576 69.1439L65.7448 68.3612L65.9352 67.3888Z" fill="#4F1F26"/>
<path d="M65.6178 69.8479L67.7276 72.7098L71.8996 73.4608L71.9789 75.042L67.7831 74.2751L65.6971 71.4211L65.6098 70.7333L65.6178 69.8479Z" fill="#4F1F26"/>
<path d="M65.8085 72.0372L67.6566 74.5829L72.0903 75.6581L72.5186 76.9546L67.9659 75.6185L66.2368 73.3338L65.9989 72.7962L65.8085 72.0372Z" fill="#4F1F26"/>
<path d="M66.4906 73.824L68.5766 75.832L72.7724 77.4369L73.5259 78.3777L69.2984 76.757L67.2441 74.7569L66.8396 74.3616L66.4906 73.824Z" fill="#4F1F26"/>
<path d="M69.552 59.9725L71.5508 62.9056L75.8338 63.5855L74.6758 65.214L70.361 64.5183L68.394 61.5932L68.973 60.7394L69.552 59.9725Z" fill="#4F1F26"/>
<path d="M71.3921 57.9971L73.383 60.938L77.674 61.61L76.3415 62.9777L72.0267 62.2899L70.0596 59.3648L70.6545 58.6849L71.3921 57.9971Z" fill="#4F1F26"/>
<path d="M73.3671 56.4944L75.3659 59.4353L79.649 60.1152L78.2292 61.1351L73.9144 60.4393L71.9474 57.5142L72.5502 57.0241L73.3671 56.4944Z" fill="#4F1F26"/>
<path d="M75.3579 55.5537L77.1583 57.9966L81.6476 59.1666L80.2199 59.7833L75.7068 58.5974L73.9381 56.1704L74.5647 55.8383L75.3579 55.5537Z" fill="#4F1F26"/>
<path d="M77.2456 55.2218L79.2047 57.2061L83.5354 58.8426L82.2029 59.0086L77.9674 57.6647L75.9131 55.3957L76.6507 55.2613L77.2456 55.2218Z" fill="#4F1F26"/>
<path d="M83.9558 58.922L86.8588 60.4715L86.0894 61.6416L83.9558 60.4399V58.922Z" fill="#481018"/>
<path d="M84.757 60.4474L87.6599 62.1155L86.8906 63.2934L84.757 62.0918V60.4474Z" fill="#481018"/>
<path d="M85.0741 62.551L87.9691 64.2191L87.2077 65.3892L85.0741 64.1875V62.551Z" fill="#481018"/>
<path d="M84.8838 64.9541L87.7868 66.6222L87.0174 67.8002L84.8838 66.5985V64.9541Z" fill="#481018"/>
<path d="M84.2018 67.5233L87.0968 69.1914L86.3354 70.3694L84.2018 69.1677V67.5233Z" fill="#481018"/>
<path d="M71.9793 75.0417C71.9238 74.6385 71.892 74.2195 71.892 73.7689C71.892 73.6661 71.892 73.5712 71.892 73.4685L72.1776 73.2471C72.1776 73.0653 72.1934 72.8914 72.2093 72.7095L71.9396 72.7649C71.9872 72.1877 72.0824 71.6027 72.2172 71.0098L72.5028 70.8675C72.5424 70.6777 72.59 70.488 72.6455 70.2983L72.3997 70.2587C72.5662 69.65 72.7724 69.0413 73.0183 68.4325L73.288 68.3772C73.3673 68.1874 73.4466 67.9977 73.5259 67.8159L73.3276 67.6894C73.5973 67.0806 73.9067 66.4877 74.2398 65.9106L74.4857 65.9501C74.5888 65.7762 74.6998 65.6023 74.8029 65.4283L74.6681 65.2228C75.025 64.6615 75.4137 64.116 75.8261 63.5942L76.0244 63.7207C76.1513 63.5626 76.2782 63.4124 76.4051 63.2622L76.3337 62.9855C76.7541 62.4953 77.2062 62.0368 77.6662 61.6178L77.8011 61.8233C77.9359 61.6968 78.0787 61.5782 78.2214 61.4597V61.1276C78.6815 60.7481 79.1574 60.4082 79.6412 60.1078L79.7126 60.3845C79.784 60.345 79.8554 60.2975 79.9267 60.258C79.9981 60.2185 80.0695 60.1789 80.1409 60.1394L80.2123 59.7757C80.6961 59.5149 81.172 59.3093 81.632 59.1591V59.4911C81.7748 59.4437 81.9096 59.4042 82.0524 59.3726L82.1872 59.001C82.6473 58.8903 83.0994 58.835 83.5198 58.835L83.4484 59.1986C83.5753 59.1986 83.7022 59.1986 83.8291 59.2144L84.0274 58.8587C84.4398 58.8982 84.8285 59.001 85.1854 59.1512L85.0426 59.5149C85.1537 59.5623 85.2568 59.6097 85.3599 59.673L85.6058 59.3567C85.9389 59.5465 86.2482 59.7916 86.5179 60.0841L86.3196 60.4319C86.4069 60.5268 86.4862 60.6217 86.5576 60.7165L86.8272 60.4556C87.0652 60.7798 87.2793 61.1513 87.4459 61.5703L87.2 61.8866C87.2476 62.021 87.2952 62.1554 87.3428 62.2977L87.6283 62.1079C87.7632 62.5507 87.8504 63.025 87.9059 63.5468L87.6363 63.8077C87.6521 63.9737 87.6601 64.1397 87.668 64.3136L87.9535 64.2109C87.9535 64.3057 87.9535 64.4085 87.9535 64.5034C87.9535 64.954 87.9218 65.4125 87.8663 65.8711L87.5807 66.0529C87.5569 66.2426 87.5252 66.4324 87.4935 66.6221H87.7552C87.6521 67.2071 87.5094 67.8001 87.3269 68.4009L87.0414 68.5037C86.9779 68.7013 86.9145 68.9069 86.8431 69.1045L87.0652 69.1836C86.851 69.7923 86.5972 70.3931 86.3117 70.9861H86.0499C85.9548 71.1916 85.8516 71.3893 85.7485 71.5869L85.9151 71.7529C85.6058 72.338 85.2568 72.9072 84.8919 73.4527L84.6698 73.3736C84.5429 73.5554 84.416 73.7373 84.2812 73.9191L84.3843 74.1642C83.9957 74.686 83.5832 75.184 83.1549 75.6505L82.9883 75.4844C82.8376 75.6425 82.6949 75.8007 82.5362 75.9509L82.5759 76.2513C82.1397 76.6782 81.6796 77.0814 81.2117 77.4371L81.1085 77.1921C80.9499 77.3107 80.7913 77.4292 80.6247 77.5399L80.593 77.8878C80.363 78.0459 80.125 78.1961 79.8871 78.3305C79.6491 78.4649 79.4191 78.5914 79.1812 78.6942L79.1494 78.3858C78.9908 78.4649 78.8242 78.5281 78.6656 78.5914L78.5625 78.955C78.0945 79.1369 77.6345 79.2634 77.1983 79.3345L77.2379 78.9867C77.0872 79.0104 76.9365 79.0262 76.7858 79.042L76.6193 79.4057C76.191 79.4373 75.7785 79.4057 75.3899 79.3345L75.493 78.963C75.3581 78.9313 75.2312 78.8997 75.1043 78.8602L74.8822 79.2001C74.5095 79.0736 74.1684 78.8997 73.8591 78.6783L74.0256 78.3147C73.9225 78.2356 73.8194 78.1566 73.7242 78.0696L73.4625 78.3621C73.1769 78.0933 72.9311 77.785 72.709 77.4213L72.9311 77.0814C72.8597 76.9628 72.7962 76.8363 72.7328 76.7098L72.4472 76.9312C72.2648 76.5438 72.122 76.109 72.0189 75.6346L72.2807 75.3421C72.2489 75.1919 72.2172 75.0338 72.1934 74.8678L71.9079 75.0101L71.9793 75.0417Z" fill="#67383F"/>
<path d="M72.6851 73.4922C72.6851 78.1645 75.9926 80.0461 80.0774 77.6902C84.1622 75.3422 87.4696 69.65 87.4696 64.9778C87.4696 60.3055 84.1622 58.4239 80.0774 60.7798C75.9926 63.1278 72.6851 68.8199 72.6851 73.4922Z" fill="#5C2930"/>
<path d="M74.3666 72.5195C74.3666 76.1246 76.9206 77.5792 80.0774 75.7688C83.2341 73.9584 85.7881 69.5549 85.7881 65.9499C85.7881 62.3449 83.2341 60.8902 80.0774 62.7006C76.9206 64.5189 74.3666 68.9145 74.3666 72.5195Z" fill="#67383F"/>
<path d="M74.9693 71.9978C74.9693 75.1364 77.1902 76.4013 79.9345 74.8202C82.6788 73.239 84.8997 69.4205 84.8997 66.282C84.8997 63.1434 82.6788 61.8785 79.9345 63.4596C77.1902 65.0408 74.9693 68.8592 74.9693 71.9978Z" fill="#E89E00"/>
<path d="M84.4794 66.527C84.4794 69.3968 82.441 72.899 79.9346 74.3457C77.4203 75.7925 75.3898 74.6303 75.3898 71.7606C75.3898 68.8908 77.4282 65.3885 79.9346 63.9418C82.4489 62.495 84.4794 63.6572 84.4794 66.527Z" fill="#BF5900"/>
<path d="M84.4794 66.527C84.4794 69.3968 82.441 72.899 79.9346 74.3457C77.4203 75.7925 75.3898 74.6303 75.3898 71.7606C75.3898 68.8908 77.4282 65.3885 79.9346 63.9418C82.4489 62.495 84.4794 63.6572 84.4794 66.527ZM84.0114 66.6851C84.0114 64.0129 82.1158 62.9299 79.776 64.2817C77.4361 65.6257 75.5405 68.8829 75.5405 71.5629C75.5405 74.243 77.4361 75.3181 79.776 73.9663C82.1158 72.6223 84.0114 69.3651 84.0114 66.6851Z" fill="#E68F00"/>
<path d="M82.6154 66.7875C82.6154 68.9299 81.1005 71.5309 79.2286 72.614C77.4995 73.6101 76.0718 72.946 75.8656 71.1435C75.8497 71.0012 75.8418 70.8431 75.8418 70.685C75.8418 69.2382 76.5319 67.5859 77.555 66.3289C78.0468 65.7202 78.6179 65.2142 79.2286 64.8585C81.1005 63.7833 82.6154 64.645 82.6154 66.7795V66.7875Z" fill="#DE7200"/>
<path d="M76.2702 69.8717C76.2702 69.9271 76.2702 69.9824 76.2702 70.0377C76.2861 70.3777 76.3654 70.6623 76.4844 70.8916C76.5954 71.1129 76.754 71.2789 76.9444 71.3975C76.9841 71.4212 77.6503 71.8007 77.69 71.8165C78.1183 72.0142 78.0469 71.5952 78.6735 71.2394C80.006 70.4726 81.0847 68.6147 81.0847 67.0889C81.0847 66.3379 81.513 66.2035 81.0847 65.9505C81.045 65.9268 80.3153 65.5157 80.2677 65.4919C80.2439 65.484 80.2281 65.4682 80.2043 65.4682C79.8712 65.3417 79.4666 65.3655 79.0145 65.5473C78.9035 65.5947 78.7845 65.6501 78.6656 65.7212C77.6503 66.3062 76.7858 67.5237 76.4288 68.7333C76.3575 68.9863 76.3019 69.2393 76.2781 69.4843C76.2623 69.6108 76.2544 69.7452 76.2544 69.8638L76.2702 69.8717Z" fill="#380009"/>
<path d="M76.9523 70.2584C76.9523 70.3138 76.9523 70.3691 76.9523 70.4245C76.9681 70.7644 77.0475 71.049 77.1664 71.2783C77.5471 72.0056 78.38 72.1795 79.3555 71.6261C80.6881 70.8593 81.7668 69.0014 81.7668 67.4756C81.7668 66.6534 81.4495 66.1 80.9498 65.8787C80.926 65.8708 80.9101 65.8549 80.8863 65.8549C80.5532 65.7285 80.1487 65.7522 79.6966 65.934C79.5856 65.9814 79.4666 66.0368 79.3476 66.1079C78.3324 66.693 77.4678 67.9104 77.1109 69.12C77.0395 69.373 76.984 69.626 76.9602 69.8711C76.9443 69.9975 76.9364 70.1319 76.9364 70.2505L76.9523 70.2584Z" fill="#543A3E"/>
<path d="M77.9281 69.2941C77.9281 69.6024 78.0233 69.8396 78.174 69.974C78.3881 70.1637 79.094 70.559 79.094 70.559L80.7517 67.7208C80.7517 67.7208 80.1648 67.3888 80.0062 67.2544C79.792 67.0726 79.4668 67.0726 79.094 67.2781C78.4516 67.6497 77.9281 68.5509 77.9281 69.2862V69.2941Z" fill="#380009"/>
<path d="M78.7448 69.8079C78.7448 70.5432 79.2683 70.8436 79.9108 70.472C80.5532 70.1005 81.0767 69.1992 81.0767 68.464C81.0767 67.7287 80.5532 67.4283 79.9108 67.7999C79.2683 68.1715 78.7448 69.0727 78.7448 69.8079Z" fill="#63474B"/>
<path d="M79.3553 69.4362C79.3553 69.5706 79.395 69.6654 79.4584 69.7287C79.5457 69.8077 79.7678 69.9184 79.7678 69.9184L80.4737 68.7168C80.4737 68.7168 80.3071 68.6298 80.2357 68.5745C80.1485 68.4954 80.0057 68.4954 79.8471 68.5824C79.5774 68.7405 79.3553 69.12 79.3553 69.4362Z" fill="#380009"/>
<path d="M79.6252 69.6026C79.6252 69.9188 79.8472 70.0453 80.1169 69.8872C80.3866 69.729 80.6087 69.3496 80.6087 69.0333C80.6087 68.7171 80.3866 68.5906 80.1169 68.7487C79.8472 68.9068 79.6252 69.2863 79.6252 69.6026Z" fill="#786266"/>
<path d="M95.5438 40.0738L102.619 34.524L110.051 30.0177L110.487 28.2706L109.591 28.0729L101.025 31.1957L93.9654 38.8564L95.5438 40.0738Z" fill="#123D4F"/>
<path d="M70.9957 57.0554C70.9957 57.0554 76.9841 52.9444 79.9902 53.2843C84.8602 53.8377 85.1219 58.8025 85.1219 58.8025L96.5672 50.1774C96.5672 50.1774 98.907 43.5998 104.848 40.1371C110.075 37.0934 111.479 38.8801 111.479 38.8801C111.479 38.8801 113.977 37.0381 114.255 36.1605C114.532 35.2751 113.969 29.7569 113.969 29.7569L113.303 28.0888L110.741 29.2825L109.972 28.8793L108.576 18.8628L108.076 17.6374C108.076 17.6374 105.3 18.9972 102.032 20.7522C98.7642 22.5152 92.1969 26.4128 92.1969 26.4128C92.1969 26.4128 86.0816 30.2549 80.3153 34.777C74.6442 39.2279 71.6937 42.4219 71.6064 42.5246L71.4637 44.422L71.0116 57.0554H70.9957Z" fill="#999999"/>
<path d="M114.255 36.1602C113.977 37.0456 111.479 38.8797 111.479 38.8797C111.479 38.8797 110.067 37.0931 104.848 40.1368C98.907 43.5995 96.5671 50.177 96.5671 50.177L85.1218 58.8022C85.1218 58.8022 84.8601 53.8374 79.9901 53.284C76.984 52.944 70.9957 57.055 70.9957 57.055L71.1543 54.9758C71.1543 54.9758 74.2714 53.0705 79.1097 50.1138C83.9559 47.157 113.969 29.7565 113.969 29.7565C113.969 29.7565 114.532 35.2747 114.255 36.1602Z" fill="#01602E"/>
<path d="M101.429 14.705L92.3317 19.9386V23.8757L102.397 18.3891L101.429 14.705Z" fill="#01602E"/>
<path d="M108.631 28.3976L74.5967 49.6798V51.427L108.893 29.9708L108.631 28.3976Z" fill="#CF6000"/>
<path d="M71.4556 44.422C71.4556 44.422 78.3799 36.8799 92.0302 28.2943C96.6623 25.385 108.576 18.8628 108.576 18.8628L108.076 17.6374C108.076 17.6374 105.3 18.9972 102.032 20.7522C98.7641 22.5152 92.1968 26.4128 92.1968 26.4128C92.1968 26.4128 86.0815 30.2549 80.3152 34.777C74.6441 39.2279 71.6936 42.4219 71.6063 42.5246L71.4636 44.422H71.4556Z" fill="#AAAAAA"/>
<path d="M71.5905 42.5329L67.4185 40.1295L66.8237 54.6602L70.9957 57.0557L71.5905 42.5329Z" fill="#AAAAAA"/>
<path d="M42.4895 51.2762L56.3222 59.0792L54.1648 42.0739L38.8886 33.4646L42.4895 51.2762Z" fill="#67383F"/>
<path d="M39.1025 34.5475L46.6058 38.7138L47.978 48.9122L42.4893 51.276L39.1025 34.5475Z" fill="#7E7E7E"/>
<path d="M53.4589 42.5802L38.6982 34.2555L38.3254 32.5004L38.5475 31.5596L51.7774 22.721L67.0536 31.3303L55.3862 40.4615L53.4589 42.5802Z" fill="#00AA51"/>
<path d="M67.0537 31.3299L53.0544 39.7337L52.8323 40.6745L53.4589 42.5797L54.1648 42.0738L56.3222 59.079L56.1795 59.3557L56.8298 61.9172L57.5754 62.9291L59.59 61.5851L62.2313 60.7946L59.2728 59.0869L59.0824 57.6006L65.1898 53.7189L66.8713 31.8912L67.0537 31.3299Z" fill="#01602E"/>
<path d="M55.9177 39.5682L65.3405 33.9393L64.119 53.593L58.6541 56.8976L58.0593 57.5063L56.3223 59.0796L54.1649 42.0743L56.0684 40.9201L55.9177 39.5682Z" fill="#26191A"/>
<path d="M56.6237 39.7185L58.6938 56.3759L63.6986 53.4903L64.8487 34.7853L56.6237 39.7185Z" fill="#4F2F32"/>
<path d="M56.1874 41.6548L58.1465 56.9682L56.2509 58.7787L54.26 42.6668L56.1874 41.6548Z" fill="#4F2F32"/>
<path d="M59.0825 57.6001L59.2729 59.0864L63.8256 61.7111L69.7505 56.3431L65.1898 53.7184L59.0825 57.6001Z" fill="#D1D1D1"/>
<path d="M59.0824 57.6001L63.6352 60.2248L63.8255 61.7111L59.2728 59.0864L59.0824 57.6001Z" fill="#959595"/>
<path d="M63.6353 60.2251L63.8256 61.7114L64.4443 61.5374L69.7505 58.0668V56.3434L63.6353 60.2251Z" fill="#686868"/>
<path d="M59.6615 58.0428L59.0507 59.0627L60.1374 69.8619L59.6615 70.2572L58.6541 59.3236L59.3997 57.9401L59.6615 58.0428Z" fill="#025228"/>
<path d="M59.0822 62.2093L62.6515 64.1857L62.9925 63.6323L59.2091 61.6638L59.0822 62.2093Z" fill="#049649"/>
<path d="M59.82 69.3956L63.3972 71.372L63.7303 70.8186L59.9469 68.8501L59.82 69.3956Z" fill="#049649"/>
<path d="M59.4948 66.969L63.072 68.9454L63.4131 68.392L59.6218 66.4235L59.4948 66.969Z" fill="#049649"/>
<path d="M59.1776 64.5503L62.7547 66.5188L63.0879 65.9654L59.3045 64.0048L59.1776 64.5503Z" fill="#049649"/>
<path d="M63.3654 60.0672L62.7467 61.087L63.8413 71.8862L63.3654 72.2815L62.3581 61.3479L63.0957 59.9723L63.3654 60.0672Z" fill="#01602E"/>
<path d="M63.0482 56.0751L66.8316 53.5452L70.5912 51.3791L65.9115 48.7939L65.6974 49.1734L69.7028 51.387L66.6016 53.1737L62.8023 55.7193L63.0482 56.0751Z" fill="#007E3C"/>
<path d="M63.3339 58.6923L67.1252 56.1625L70.8769 53.9963L65.7213 51.1423L65.5072 51.5218L69.9885 54.0042L66.8873 55.7909L63.088 58.3365L63.3339 58.6923Z" fill="#007E3C"/>
<path d="M68.6637 29.9154L51.8884 20.2625L70.9401 9.59766L87.7234 19.2506L68.6637 29.9154Z" fill="#00AA51"/>
<path d="M44.2185 59.9893L34.4706 69.1836V70.5197L35.7079 74.4805L41.9025 78.1962L44.3851 73.0653L45.908 71.4289L50.4131 63.7129L44.2185 59.9893Z" fill="#E89E00"/>
<path d="M50.4132 63.7125L40.6573 72.9069V74.2351L41.9026 78.1958L43.1082 77.1365L44.0045 77.4053L45.5353 75.7688L50.6353 68.0686L50.4132 63.7125Z" fill="#CF6000"/>
<path d="M114.524 44.5727C114.524 44.6439 114.524 44.715 114.524 44.7862C114.524 45.1182 114.5 45.4582 114.461 45.7981L114.247 45.9325C114.231 46.0748 114.207 46.2092 114.183 46.3515H114.373C114.294 46.7784 114.191 47.2212 114.056 47.6639L113.85 47.735C113.802 47.8852 113.755 48.0275 113.707 48.1778L113.874 48.241C113.715 48.6916 113.533 49.1344 113.319 49.5692H113.128C113.057 49.7194 112.985 49.8696 112.906 50.0119L113.033 50.1384C112.803 50.5653 112.549 50.9843 112.28 51.3875L112.113 51.3242C112.018 51.4586 111.923 51.593 111.827 51.7274L111.907 51.9093C111.621 52.2966 111.32 52.6603 110.995 53.0082L110.868 52.8817C110.757 53.0003 110.646 53.1109 110.535 53.2216L110.558 53.443C110.233 53.7592 109.9 54.0517 109.551 54.3205L109.472 54.1387C109.353 54.2256 109.234 54.3126 109.115 54.3917L109.091 54.6446C108.917 54.7632 108.75 54.866 108.575 54.9688C108.401 55.0716 108.226 55.1585 108.06 55.2376L108.036 55.0162C107.917 55.0716 107.798 55.1269 107.679 55.1664L107.6 55.4352C107.354 55.5301 107.108 55.6091 106.87 55.6645L107.846 56.7159L107.402 56.9452L106.394 56.4155L106.275 56.463L102.873 55.032C102.714 54.9609 101.786 53.9015 101.643 53.7908L101.667 53.7355L101.35 53.5537C101.144 53.356 100.953 53.1267 100.795 52.8659L100.914 52.684L100.604 52.5101C100.469 52.2255 100.366 51.9014 100.287 51.5535L100.477 51.3401C100.477 51.3401 100.469 51.2768 100.461 51.2452L100.208 51.095C100.168 50.8025 100.144 50.4862 100.144 50.1542C100.144 50.083 100.144 50.004 100.144 49.9328L100.35 49.7668C100.35 49.6878 100.358 49.6008 100.366 49.5217L100.176 49.4111C100.216 48.9841 100.279 48.5493 100.382 48.1145L100.596 48.0117C100.62 47.8932 100.652 47.7746 100.684 47.656L100.525 47.5611C100.652 47.1105 100.802 46.6599 100.977 46.2171L101.175 46.1776C101.231 46.0353 101.294 45.9009 101.35 45.7586L101.207 45.6637C101.405 45.221 101.635 44.7783 101.881 44.3514L102.064 44.3751C102.143 44.2486 102.222 44.1142 102.302 43.9877L102.198 43.8375C102.46 43.4185 102.754 43.0232 103.055 42.6358L103.206 42.7228C103.293 42.6121 103.388 42.5014 103.483 42.3908L103.428 42.1852C103.737 41.8295 104.07 41.4895 104.411 41.1812L104.578 41.2761C104.657 41.2049 104.737 41.1338 104.816 41.0705V40.8254C105.157 40.5487 105.506 40.2957 105.863 40.0744L106.061 40.193C106.061 40.193 106.061 40.193 106.069 40.193C106.125 40.1613 106.172 40.1376 106.228 40.106L106.283 39.8372C106.64 39.6475 106.989 39.4973 107.33 39.3787L107.616 39.5447C107.616 39.5447 107.632 39.5447 107.64 39.5447L107.743 39.2759C108.084 39.1968 108.409 39.1494 108.726 39.1494L109.099 39.1652C109.4 39.1968 111.082 40.0665 111.344 40.1772L111.645 40.3511L111.661 40.3274L114.905 42.1931L115.531 43.877L114.294 43.1181C114.373 43.4106 114.437 43.7189 114.469 44.0589L114.27 44.2486C114.278 44.3672 114.286 44.4937 114.294 44.6202L114.5 44.549L114.524 44.5727ZM114.215 43.0786L114.009 42.9521C114.032 43.0232 114.056 43.0944 114.08 43.1655L114.215 43.0786Z" fill="#481018"/>
<path d="M109.971 39.5295L111.724 40.6838L114.619 42.0752L113.763 41.8617L110.923 40.6364L109.131 39.1975L109.971 39.5295Z" fill="#4F1F26"/>
<path d="M101.913 44.383L103.388 46.5492L106.545 47.0551L105.871 48.3675L102.69 47.8536L101.239 45.7033L101.564 45.0313L101.913 44.383Z" fill="#4F1F26"/>
<path d="M101.009 46.2489L102.714 48.423L105.641 48.9131L105.181 50.2571L102.246 49.759L100.549 47.5929L100.739 46.9841L101.009 46.2489Z" fill="#4F1F26"/>
<path d="M100.414 48.1462L102.032 50.3045L105.046 50.8105L104.848 52.107L101.81 51.5931L100.208 49.4428L100.271 48.8578L100.414 48.1462Z" fill="#4F1F26"/>
<path d="M100.184 49.9572L101.738 52.0759L104.816 52.6293L104.871 53.7914L101.778 53.2222L100.239 51.1193L100.176 50.6133L100.184 49.9572Z" fill="#4F1F26"/>
<path d="M100.319 51.5771L101.683 53.4508L104.951 54.2414L105.268 55.198L101.913 54.2177L100.636 52.5337L100.461 52.1385L100.319 51.5771Z" fill="#4F1F26"/>
<path d="M100.826 52.8896L102.365 54.3759L105.458 55.5539L106.014 56.2496L102.896 55.0558L101.382 53.5774L101.08 53.2928L100.826 52.8896Z" fill="#4F1F26"/>
<path d="M103.079 42.676L104.554 44.8421L107.719 45.3402L106.862 46.5419L103.682 46.028L102.23 43.8776L102.651 43.2452L103.079 42.676Z" fill="#4F1F26"/>
<path d="M104.435 41.2209L105.91 43.3871L109.075 43.8851L108.092 44.8971L104.911 44.3832L103.452 42.2328L103.896 41.7269L104.435 41.2209Z" fill="#4F1F26"/>
<path d="M105.895 40.1143L107.37 42.2804L110.527 42.7785L109.48 43.5374L106.299 43.0236L104.848 40.8653L105.292 40.5016L105.895 40.1143Z" fill="#4F1F26"/>
<path d="M107.37 39.4182L108.687 41.2207L112.002 42.0824L110.947 42.5409L107.624 41.6634L106.315 39.8688L106.775 39.6316L107.37 39.4182Z" fill="#4F1F26"/>
<path d="M108.758 39.1729L110.194 40.6354L113.39 41.845L112.406 41.9636L109.289 40.9754L107.774 39.2993L108.314 39.2045L108.758 39.1729Z" fill="#4F1F26"/>
<path d="M113.707 41.9081L115.841 43.0465L115.278 43.9082L113.707 43.0228V41.9081Z" fill="#481018"/>
<path d="M114.294 43.0314L116.436 44.2647L115.865 45.1265L114.294 44.241V43.0314Z" fill="#481018"/>
<path d="M114.524 44.5733L116.666 45.8066L116.103 46.6762L114.524 45.7908V44.5733Z" fill="#481018"/>
<path d="M114.389 46.3517L116.531 47.585L115.96 48.4468L114.389 47.5613V46.3517Z" fill="#481018"/>
<path d="M113.882 48.249L116.023 49.4823L115.46 50.344L113.882 49.4586V48.249Z" fill="#481018"/>
<path d="M104.871 53.7903C104.832 53.4978 104.808 53.1816 104.808 52.8495C104.808 52.7784 104.808 52.6993 104.808 52.6282L105.014 52.4622C105.014 52.3278 105.022 52.2013 105.038 52.0669L104.84 52.1064C104.879 51.6795 104.943 51.2447 105.046 50.8099L105.26 50.7071C105.292 50.5648 105.323 50.4304 105.363 50.2881L105.181 50.2644C105.308 49.8137 105.458 49.3631 105.633 48.9204L105.831 48.8809C105.887 48.7386 105.95 48.6042 106.006 48.4619L105.863 48.367C106.061 47.9243 106.291 47.4815 106.537 47.0546L106.719 47.0784C106.799 46.9519 106.878 46.8175 106.957 46.691L106.854 46.5408C107.124 46.1218 107.409 45.7265 107.711 45.3391L107.854 45.434C107.949 45.3233 108.036 45.2047 108.131 45.094L108.076 44.8885C108.385 44.5327 108.718 44.1928 109.059 43.8844L109.162 44.0426C109.265 43.9477 109.369 43.8607 109.472 43.7738V43.5287C109.813 43.252 110.162 42.999 110.519 42.7776L110.574 42.9832C110.63 42.9516 110.677 42.9199 110.733 42.8883C110.788 42.8567 110.836 42.833 110.891 42.8014L110.947 42.5326C111.304 42.3428 111.653 42.1926 111.994 42.074V42.3191C112.097 42.2875 112.2 42.2559 112.303 42.2321L112.406 41.9633C112.747 41.8843 113.073 41.8369 113.39 41.8369L113.334 42.1056C113.43 42.1056 113.525 42.1056 113.612 42.1215L113.755 41.8606C114.056 41.8922 114.342 41.9633 114.611 42.074L114.508 42.3428C114.588 42.3744 114.667 42.414 114.746 42.4535L114.929 42.2163C115.174 42.3586 115.404 42.5405 115.603 42.7539L115.46 43.0148C115.523 43.086 115.579 43.1492 115.635 43.2283L115.833 43.0385C116.007 43.2757 116.166 43.5524 116.285 43.8607L116.102 44.09C116.142 44.1849 116.174 44.2876 116.206 44.3904L116.42 44.256C116.515 44.5801 116.586 44.9359 116.626 45.3154L116.428 45.5051C116.436 45.6237 116.444 45.7502 116.451 45.8767L116.658 45.8055C116.658 45.8767 116.658 45.9478 116.658 46.019C116.658 46.351 116.634 46.691 116.594 47.0309L116.38 47.1653C116.364 47.3076 116.34 47.442 116.317 47.5843H116.507C116.428 48.0112 116.325 48.4539 116.19 48.8967L115.983 48.9678C115.936 49.118 115.888 49.2603 115.841 49.4105L116.007 49.4738C115.849 49.9244 115.666 50.3671 115.452 50.802H115.262C115.19 50.9522 115.119 51.1024 115.04 51.2447L115.167 51.3712C114.937 51.7981 114.683 52.2171 114.413 52.6203L114.246 52.557C114.151 52.6914 114.056 52.8258 113.961 52.9602L114.04 53.142C113.755 53.5294 113.453 53.8931 113.128 54.2409L113.001 54.1145C112.89 54.233 112.779 54.3437 112.668 54.4544L112.692 54.6758C112.367 54.992 112.034 55.2845 111.685 55.5533L111.605 55.3715C111.486 55.4584 111.367 55.5454 111.248 55.6244L111.225 55.8774C111.05 55.996 110.883 56.0988 110.709 56.2016C110.534 56.3043 110.36 56.3913 110.193 56.4704L110.17 56.249C110.051 56.3043 109.932 56.3597 109.813 56.3992L109.733 56.668C109.384 56.8024 109.051 56.8973 108.726 56.9526L108.75 56.6996C108.639 56.7154 108.528 56.7312 108.417 56.7392L108.29 57.008C107.973 57.0317 107.671 57.008 107.378 56.9526L107.457 56.6838C107.362 56.6601 107.267 56.6364 107.171 56.6048L107.005 56.8498C106.735 56.7629 106.481 56.6285 106.251 56.4625L106.378 56.1937C106.299 56.1383 106.228 56.0751 106.156 56.0118L105.966 56.2253C105.76 56.0276 105.569 55.7984 105.411 55.5375L105.577 55.2924C105.522 55.2054 105.474 55.1106 105.434 55.0157L105.228 55.1817C105.093 54.8971 104.99 54.573 104.911 54.2251L105.101 54.0117C105.078 53.901 105.054 53.7824 105.038 53.6638L104.824 53.7666L104.871 53.7903Z" fill="#67383F"/>
<path d="M106.969 56.1207C104.851 54.8867 104.871 50.9254 107.013 47.2729C109.156 43.6203 112.609 41.6597 114.727 42.8937C116.845 44.1277 116.825 48.089 114.683 51.7415C112.54 55.394 109.087 57.3546 106.969 56.1207Z" fill="#5C2930"/>
<path d="M106.632 51.9328C106.632 54.597 108.52 55.6643 110.844 54.3282C113.168 52.9922 115.056 49.7508 115.056 47.0866C115.056 44.4223 113.168 43.3551 110.844 44.6911C108.52 46.0272 106.632 49.2765 106.632 51.9328Z" fill="#67383F"/>
<path d="M107.076 51.5463C107.076 53.8627 108.718 54.7877 110.741 53.6255C112.763 52.4634 114.405 49.641 114.405 47.3326C114.405 45.0241 112.763 44.0912 110.741 45.2534C108.718 46.4155 107.076 49.2378 107.076 51.5463Z" fill="#E89E00"/>
<path d="M114.096 47.5057C114.096 49.6244 112.597 52.2017 110.741 53.2689C108.893 54.3362 107.386 53.4824 107.386 51.3637C107.386 49.2449 108.885 46.6676 110.741 45.6004C112.589 44.5331 114.096 45.3869 114.096 47.5057Z" fill="#BF5900"/>
<path d="M114.096 47.5057C114.096 49.6244 112.597 52.2017 110.741 53.2689C108.893 54.3362 107.386 53.4824 107.386 51.3637C107.386 49.2449 108.885 46.6676 110.741 45.6004C112.589 44.5331 114.096 45.3869 114.096 47.5057ZM113.755 47.6242C113.755 45.6557 112.359 44.8572 110.63 45.8534C108.909 46.8495 107.505 49.2528 107.505 51.2213C107.505 53.1899 108.901 53.9884 110.63 52.9922C112.351 51.9961 113.755 49.5928 113.755 47.6242Z" fill="#E68F00"/>
<path d="M112.716 47.7042C112.716 49.2853 111.598 51.2064 110.217 51.997C108.94 52.7322 107.893 52.2421 107.743 50.9139C107.727 50.8111 107.727 50.6925 107.727 50.574C107.727 49.5067 108.235 48.2892 108.988 47.3642C109.353 46.9215 109.773 46.542 110.217 46.2811C111.598 45.4906 112.716 46.123 112.716 47.7042Z" fill="#DE7200"/>
<path d="M108.036 49.9727C108.036 50.0122 108.036 50.0596 108.036 50.0992C108.052 50.3443 108.108 50.5577 108.195 50.7316C108.282 50.8977 108.393 51.0162 108.536 51.1032C108.56 51.119 109.059 51.4036 109.091 51.4115C109.408 51.5538 109.353 51.2455 109.813 50.9846C110.796 50.4154 111.597 49.0477 111.597 47.9251C111.597 47.3717 111.915 47.2689 111.597 47.0871C111.566 47.0713 111.026 46.763 110.995 46.7472C110.979 46.7392 110.963 46.7313 110.947 46.7313C110.701 46.6365 110.4 46.6523 110.075 46.7867C109.987 46.8183 109.9 46.8657 109.813 46.9132C109.067 47.348 108.425 48.2413 108.163 49.1347C108.108 49.3165 108.068 49.5062 108.052 49.6881C108.044 49.7829 108.036 49.8778 108.036 49.9727Z" fill="#380009"/>
<path d="M108.544 50.2569C108.544 50.2965 108.544 50.3439 108.544 50.3834C108.56 50.6285 108.615 50.842 108.702 51.0159C108.98 51.5535 109.599 51.68 110.313 51.2689C111.296 50.6996 112.097 49.332 112.097 48.2093C112.097 47.6006 111.867 47.1895 111.494 47.0314C111.478 47.0235 111.463 47.0156 111.447 47.0156C111.201 46.9207 110.899 46.9365 110.574 47.0709C110.487 47.1025 110.4 47.15 110.313 47.1974C109.567 47.6322 108.924 48.5256 108.663 49.4189C108.607 49.6008 108.568 49.7905 108.552 49.9723C108.544 50.0672 108.536 50.1621 108.536 50.2569H108.544Z" fill="#543A3E"/>
<path d="M109.258 49.5526C109.258 49.7818 109.329 49.9558 109.44 50.0585C109.599 50.2008 110.114 50.4933 110.114 50.4933L111.336 48.4062C111.336 48.4062 110.907 48.1612 110.78 48.0584C110.622 47.924 110.384 47.924 110.114 48.0742C109.638 48.3509 109.25 49.015 109.25 49.5526H109.258Z" fill="#380009"/>
<path d="M109.86 49.9315C109.86 50.477 110.249 50.6984 110.725 50.4217C111.201 50.145 111.59 49.4809 111.59 48.9433C111.59 48.4057 111.201 48.1765 110.725 48.4532C110.249 48.7299 109.86 49.3939 109.86 49.9315Z" fill="#63474B"/>
<path d="M110.312 49.6548C110.312 49.7497 110.344 49.8288 110.392 49.8683C110.455 49.9236 110.622 50.0106 110.622 50.0106L111.137 49.1252C111.137 49.1252 111.01 49.0619 110.963 49.0224C110.899 48.967 110.796 48.967 110.677 49.0303C110.479 49.1489 110.312 49.4256 110.312 49.6548Z" fill="#380009"/>
<path d="M110.511 49.7815C110.511 50.0107 110.677 50.1056 110.875 49.987C111.074 49.8684 111.24 49.5917 111.24 49.3625C111.24 49.1332 111.074 49.0383 110.875 49.1569C110.677 49.2755 110.511 49.5522 110.511 49.7815Z" fill="#786266"/>
<path d="M67.6407 28.5241L54.2601 20.8239L72.2807 10.7441L85.6613 18.4443L67.6407 28.5241Z" fill="#2B2123"/>
<path d="M85.6613 18.4444L72.2807 10.7442L71.194 7.99304L84.5826 15.6932L85.6613 18.4444Z" fill="#656565"/>
<path d="M85.6613 18.4445L67.6408 28.5243V25.2829L84.5826 15.6933L85.6613 18.4445Z" fill="#999999"/>
<path d="M92.9027 17.1717L76.5477 25.8047L67.6405 25.2829L84.5824 15.6933L92.9027 17.1717Z" fill="#D1D1D1"/>
<path d="M72.2805 10.7442L54.2599 20.824V17.5827L71.1939 7.99304L72.2805 10.7442Z" fill="#656565"/>
<path d="M67.6404 28.5235L54.2597 20.8233V17.582L67.6404 25.2822V28.5235Z" fill="#AAAAAA"/>
<path d="M64.6107 0L48.2558 8.63306L54.26 17.5823L71.1939 7.99269L64.6107 0Z" fill="#D1D1D1"/>
<path d="M53.0541 39.7338L38.5472 31.5593L38.3252 32.5L38.6979 34.2551L53.4586 42.5799L52.8321 40.6746L53.0541 39.7338Z" fill="#049649"/>
<path d="M13.9909 60.4241L13.8957 56.9614L16.5528 52.7002L71.8361 83.7934L70.6305 90.039L44.4403 82.6234L13.9909 60.4241Z" fill="#01602E"/>
<path d="M15.0066 50.8651L13.6265 50.1219L6.53568 59.6009L7.4954 59.2452L6.1153 58.502L2.69679 66.218L3.62396e-05 68.7399L0.285574 68.906L13.9914 60.4231L13.8962 56.9604L15.0066 50.8651Z" fill="#00AA51"/>
<path d="M16.5531 52.6994L15.0064 50.8652L7.91556 60.3521L7.49517 59.2453L3.18832 66.5976L0.285351 68.9061L3.74353 67.1748L14.2767 60.5893L14.1815 57.1266L16.5531 52.6994Z" fill="#01602E"/>
<path d="M14.3008 51.411L15.1891 55.2532L65.5627 84.1961L67.3235 81.8323L14.3008 51.411Z" fill="#01602E"/>
<path d="M0.285568 68.9063L54.4663 99.9995L68.4497 91.6827L68.3625 88.212L14.1817 57.1267L13.9914 60.4234L0.285568 68.9063Z" fill="#049649"/>
<path d="M0.28553 68.9062L1.7846 67.9812L55.4736 98.6159L54.1808 99.8334L0.28553 68.9062Z" fill="#E89E00"/>
<path d="M11.7547 75.2074L12.1909 74.0769L1.6974 68.0527L1.26117 69.1833L11.7547 75.2074Z" fill="#D3D3D3"/>
<path d="M2.87917 70.1166L3.32333 68.9861L2.49845 68.5117L2.06221 69.6422L2.87917 70.1166Z" fill="#EC2D24"/>
<path d="M4.65575 71.1365L5.09198 70.006L4.27503 69.5316L3.83086 70.6621L4.65575 71.1365Z" fill="#EC2D24"/>
<path d="M6.43244 72.1477L6.86868 71.0172L6.0438 70.5508L5.60756 71.6813L6.43244 72.1477Z" fill="#EC2D24"/>
<path d="M8.20116 73.1674L8.64532 72.0368L7.82043 71.5625L7.38419 72.693L8.20116 73.1674Z" fill="#EC2D24"/>
<path d="M9.97801 74.1881L10.4142 73.0576L9.59729 72.5833L9.15312 73.7138L9.97801 74.1881Z" fill="#EC2D24"/>
<path d="M11.7547 75.2072L12.1909 74.0766L11.3661 73.6023L10.9298 74.7328L11.7547 75.2072Z" fill="#EC2D24"/>
<path d="M22.2481 81.223L22.6922 80.0924L12.1908 74.0762L11.7546 75.2067L22.2481 81.223Z" fill="#D3D3D3"/>
<path d="M13.3807 76.1401L13.8169 75.0096L12.992 74.5353L12.5558 75.6658L13.3807 76.1401Z" fill="#EC2D24"/>
<path d="M15.1494 77.152L15.5935 76.0215L14.7687 75.5551L14.3324 76.6856L15.1494 77.152Z" fill="#EC2D24"/>
<path d="M16.9262 78.1711L17.3624 77.0406L16.5454 76.5663L16.1013 77.6968L16.9262 78.1711Z" fill="#EC2D24"/>
<path d="M18.7026 79.1909L19.1389 78.0604L18.314 77.5861L17.8778 78.7166L18.7026 79.1909Z" fill="#EC2D24"/>
<path d="M20.4716 80.2036L20.9157 79.0731L20.0908 78.6067L19.6546 79.7372L20.4716 80.2036Z" fill="#EC2D24"/>
<path d="M22.2479 81.2229L22.6842 80.0924L21.8672 79.618L21.4231 80.7486L22.2479 81.2229Z" fill="#EC2D24"/>
<path d="M32.7495 87.2472L33.1857 86.1167L22.6922 80.0925L22.248 81.223L32.7495 87.2472Z" fill="#D3D3D3"/>
<path d="M23.8742 82.1564L24.3183 81.0259L23.4934 80.5515L23.0572 81.682L23.8742 82.1564Z" fill="#EC2D24"/>
<path d="M25.651 83.1759L26.0872 82.0454L25.2624 81.571L24.8261 82.7016L25.651 83.1759Z" fill="#EC2D24"/>
<path d="M27.4274 84.1875L27.8637 83.057L27.0388 82.5906L26.6026 83.7211L27.4274 84.1875Z" fill="#EC2D24"/>
<path d="M29.1961 85.2072L29.6403 84.0766L28.8154 83.6023L28.3792 84.7328L29.1961 85.2072Z" fill="#EC2D24"/>
<path d="M30.973 86.2278L31.4092 85.0973L30.5843 84.6229L30.1481 85.7534L30.973 86.2278Z" fill="#EC2D24"/>
<path d="M32.7495 87.2392L33.1857 86.1086L32.3608 85.6422L31.9246 86.7727L32.7495 87.2392Z" fill="#EC2D24"/>
<path d="M43.2429 93.2635L43.6871 92.133L33.1857 86.1167L32.7494 87.2472L43.2429 93.2635Z" fill="#D3D3D3"/>
<path d="M34.3752 88.1726L34.8114 87.0421L33.9866 86.5757L33.5503 87.7062L34.3752 88.1726Z" fill="#EC2D24"/>
<path d="M36.1442 89.1924L36.5884 88.0619L35.7635 87.5875L35.3273 88.718L36.1442 89.1924Z" fill="#EC2D24"/>
<path d="M37.9207 90.2122L38.3569 89.0816L37.5399 88.6073L37.0958 89.7378L37.9207 90.2122Z" fill="#EC2D24"/>
<path d="M39.6975 91.2313L40.1337 90.0929L39.3088 89.6265L38.8726 90.757L39.6975 91.2313Z" fill="#EC2D24"/>
<path d="M41.4661 92.2441L41.9102 91.1136L41.0854 90.6393L40.6491 91.7777L41.4661 92.2441Z" fill="#EC2D24"/>
<path d="M43.2431 93.2638L43.6794 92.1333L42.8624 91.6589L42.4182 92.7895L43.2431 93.2638Z" fill="#EC2D24"/>
<path d="M53.7446 99.2795L54.1808 98.149L43.6873 92.1327L43.2431 93.2632L53.7446 99.2795Z" fill="#D3D3D3"/>
<path d="M44.8689 94.1965L45.3051 93.066L44.4882 92.5917L44.044 93.7222L44.8689 94.1965Z" fill="#EC2D24"/>
<path d="M46.6458 95.2161L47.082 94.0855L46.2571 93.6112L45.8209 94.7417L46.6458 95.2161Z" fill="#EC2D24"/>
<path d="M48.4143 96.2277L48.8585 95.0972L48.0336 94.6307L47.5974 95.7613L48.4143 96.2277Z" fill="#EC2D24"/>
<path d="M50.1911 97.2473L50.6273 96.1168L49.8103 95.6425L49.3662 96.773L50.1911 97.2473Z" fill="#EC2D24"/>
<path d="M51.9678 98.268L52.404 97.1374L51.5791 96.6631L51.1429 97.7936L51.9678 98.268Z" fill="#EC2D24"/>
<path d="M53.7365 99.2792L54.1807 98.1487L53.3558 97.6823L52.9196 98.8128L53.7365 99.2792Z" fill="#EC2D24"/>
<path d="M13.9912 60.4233L64.4441 89.2239L66.6967 87.2L13.896 56.9606L13.9912 60.4233Z" fill="#00AA51"/>
<path d="M6.6625 70.2654L11.8815 65.269L12.9919 58.3989L8.54228 56.4462L3.32329 61.4426L2.21287 68.3127L6.6625 70.2654ZM11.0645 64.8421L6.48006 69.2297L3.19638 67.783L4.15611 61.8695L8.74057 57.4818L12.0243 58.9286L11.0645 64.8421Z" fill="#241415"/>
<path d="M55.0134 97.9999L60.2324 93.0035L61.3428 86.1413L56.8932 84.1886L51.6742 89.185L50.5638 96.0472L55.0134 97.9999ZM59.4154 92.5766L54.831 96.9643L51.5473 95.5175L52.507 89.604L57.0915 85.2163L60.3751 86.6631L59.4154 92.5766Z" fill="#241415"/>
<path d="M69.1875 81.9591L67.8074 81.2159L60.7086 90.6949L61.6763 90.3392L60.2962 89.596L56.8698 97.3041L54.1809 99.8339L54.4665 100L68.1644 91.5171L68.0771 88.0465L69.1875 81.9591Z" fill="#00AA51"/>
<path d="M70.734 83.7927L69.1874 81.9586L62.0965 91.4376L61.6761 90.3387L57.3693 97.691L54.4663 99.9995L57.9245 98.2602L68.4497 91.6827L68.3625 88.2121L70.734 83.7927Z" fill="#01602E"/>
<path d="M15.0065 50.865L67.8072 81.2151L70.734 83.7924L14.3006 51.4105L15.0065 50.865Z" fill="#00AA51"/>
<path d="M3.75168 68.0526L6.90051 63.7914L3.75168 63.151L3.84685 62.906L7.28124 62.8269L7.55884 58.3839L7.7492 58.2732L8.02681 62.4L11.3581 58.6448L11.4612 58.7871L8.40752 62.9218L11.4612 63.5463L11.3581 63.8072L8.02681 63.8863L7.7492 68.3293L7.55884 68.44L7.28124 64.3132L3.84685 68.187L3.75168 68.0526Z" fill="#241415"/>
<path d="M11.8101 72.6776L14.959 68.4085L11.8101 67.776L11.9053 67.531L15.3397 67.4519L15.6173 63.0089L15.8076 62.8982L16.0852 67.0171L19.4165 63.2619L19.5196 63.4121L16.466 67.5468L19.5196 68.1713L19.4165 68.4322L16.0852 68.5113L15.8076 72.9464L15.6173 73.065L15.3397 68.9382L11.9053 72.812L11.8101 72.6776Z" fill="#241415"/>
<path d="M19.8687 77.3026L23.0175 73.0335L19.8687 72.3931L19.9639 72.1559L23.3983 72.0769L23.6759 67.6339L23.8742 67.5232L24.1438 71.6421L27.4751 67.8869L27.5782 68.0292L24.5245 72.1718L27.5782 72.7884L27.4751 73.0572L24.1438 73.1284L23.8742 77.5714L23.6759 77.69L23.3983 73.5632L19.9639 77.437L19.8687 77.3026Z" fill="#241415"/>
<path d="M27.9271 81.9277L31.0839 77.6586L27.9271 77.0182L28.0223 76.781L31.4567 76.702L31.7343 72.259L31.9326 72.1404L32.2022 76.2672L35.5335 72.512L35.6366 72.6543L32.583 76.7969L35.6366 77.4135L35.5335 77.6744L32.2022 77.7534L31.9326 82.1965L31.7343 82.3072L31.4567 78.1883L28.0223 82.0542L27.9271 81.9277Z" fill="#241415"/>
<path d="M35.9858 86.5439L39.1425 82.2827L35.9858 81.6424L36.0809 81.4052L39.5153 81.3182L39.7929 76.8831L39.9912 76.7645L40.2688 80.8913L43.5922 77.1361L43.6953 77.2784L40.6416 81.421L43.6953 82.0376L43.5922 82.2985L40.2688 82.3776L39.9912 86.8206L39.7929 86.9313L39.5153 82.8124L36.0809 86.6783L35.9858 86.5439Z" fill="#241415"/>
<path d="M44.0441 91.1686L47.2009 86.9074L44.0441 86.267L44.1393 86.0219L47.5737 85.9429L47.8513 81.4998L48.0496 81.3892L48.3272 85.516L51.6585 81.7607L51.7536 81.903L48.7 86.0377L51.7536 86.6623L51.6585 86.9232L48.3272 87.0022L48.0496 91.4453L47.8513 91.5559L47.5737 87.4291L44.1393 91.3029L44.0441 91.1686Z" fill="#241415"/>
<path d="M11.464 58.4776L59.9128 86.3695L59.7224 86.6981L11.2736 58.8062L11.464 58.4776Z" fill="#241415"/>
<path d="M7.65059 58.2294L56.1043 86.1129L55.9139 86.4416L7.46023 58.558L7.65059 58.2294Z" fill="#241415"/>
<path d="M3.85316 62.9793L52.3069 90.8628L52.1165 91.1914L3.6628 63.3079L3.85316 62.9793Z" fill="#241415"/>
<path d="M55.7272 91.8254L56.4966 90.513L8.03447 62.6216L7.4396 62.59L7.02716 63.4122L7.27303 63.9418L55.7272 91.8254Z" fill="#241415"/>
<path d="M3.94312 68.0307L52.3919 95.9226L52.2015 96.2512L3.7527 68.3593L3.94312 68.0307Z" fill="#241415"/>
<path d="M7.65059 68.2825L56.1043 96.166L55.9139 96.4946L7.46023 68.6111L7.65059 68.2825Z" fill="#241415"/>
<path d="M11.4594 63.4046L59.9082 91.2965L59.7178 91.6251L11.269 63.7332L11.4594 63.4046Z" fill="#241415"/>
<path d="M66.0701 30.6037L52.2136 38.9126L52.1501 39.0075L52.6101 39.2842L66.1732 30.7934L66.0701 30.6037Z" fill="#01602E"/>
<path d="M65.7131 30.3984L52.2135 38.9129L52.507 39.0947L66.07 30.604L65.7131 30.3984Z" fill="#009A49"/>
<path d="M63.4367 29.108L49.5723 37.4169L49.5168 37.5118L49.9689 37.7806L63.5319 29.2977L63.4367 29.108Z" fill="#01602E"/>
<path d="M63.0798 28.9029L49.5722 37.4174L49.8657 37.5913L63.4367 29.1084L63.0798 28.9029Z" fill="#009A49"/>
<path d="M60.7957 27.606L46.9312 35.9149L46.8757 36.0098L47.3278 36.2786L60.8988 27.7958L60.7957 27.606Z" fill="#01602E"/>
<path d="M60.4386 27.4009L46.9311 35.9154L47.2325 36.0893L60.7955 27.6064L60.4386 27.4009Z" fill="#009A49"/>
<path d="M58.1544 26.1053L44.2979 34.4143L44.2344 34.5091L44.6865 34.7858L58.2575 26.2951L58.1544 26.1053Z" fill="#01602E"/>
<path d="M57.7976 25.8992L44.2981 34.4136L44.5915 34.5955L58.1546 26.1047L57.7976 25.8992Z" fill="#009A49"/>
<path d="M55.5211 24.6022L41.6566 32.9111L41.6011 33.006L42.0532 33.2827L55.6162 24.7919L55.5211 24.6022Z" fill="#01602E"/>
<path d="M55.1639 24.4049L41.6563 32.9115L41.9498 33.0933L55.5208 24.6026L55.1639 24.4049Z" fill="#009A49"/>
<path d="M52.8798 23.1081L39.0153 31.417L38.9598 31.5119L39.4119 31.7807L52.9749 23.2978L52.8798 23.1081Z" fill="#01602E"/>
<path d="M52.5229 22.9028L39.0154 31.4173L39.3089 31.5912L52.8799 23.1084L52.5229 22.9028Z" fill="#009A49"/>
<path d="M48.8585 35.6862L49.9769 36.3265L49.39 36.8167L48.2716 36.1684L48.8585 35.6862Z" fill="#FFA436"/>
<path d="M48.2714 36.1686L49.3897 36.8168V37.3703L48.2714 36.722V36.1686Z" fill="#FF8D36"/>
<path d="M49.39 36.8169L49.9769 36.3268V36.8802L49.39 37.3703V36.8169Z" fill="#DB5716"/>
<path d="M46.0667 34.0572L47.193 34.7055L46.5981 35.1877L45.4797 34.5473L46.0667 34.0572Z" fill="#FFA436"/>
<path d="M45.4798 34.5474L46.5981 35.1878V35.7412L45.4798 35.1008V34.5474Z" fill="#FF8D36"/>
<path d="M46.598 35.1879L47.1929 34.7057V35.2591L46.598 35.7413V35.1879Z" fill="#DB5716"/>
<path d="M43.4887 32.5165L44.6071 33.1648L44.0122 33.6471L42.8939 33.0067L43.4887 32.5165Z" fill="#FFA436"/>
<path d="M42.8938 33.0065L44.0121 33.6468V34.2002L42.8938 33.5599V33.0065Z" fill="#FF8D36"/>
<path d="M44.0123 33.6472L44.6071 33.165V33.7184L44.0123 34.2006V33.6472Z" fill="#DB5716"/>
<path d="M52.8796 40.8179C52.6496 40.7072 38.3252 32.501 38.3252 32.501L38.6979 34.264L53.4586 42.5887L52.8796 40.8258V40.8179Z" fill="#2B2123"/>
<path d="M52.3722 58.3993L52.8322 59.6405L56.1476 61.5458L55.87 60.7947L55.6955 60.3046L55.6479 60.2809L55.0055 59.9093L54.5851 59.6642L54.1885 59.4428L53.4985 59.0476L52.3722 58.3993Z" fill="#0A0A0A"/>
<path d="M52.8322 59.6406L53.3398 59.4904L55.9097 60.8976L56.1476 61.5458L52.8322 59.6406Z" fill="#494949"/>
<path d="M53.4985 59.0478L53.6254 59.3166L53.9586 60.0439L54.2679 59.957C54.2679 59.957 54.3314 59.9412 54.3552 59.9333C54.4583 59.8858 54.5376 59.7989 54.5852 59.6645L54.1886 59.4352L53.5065 59.0399L53.4985 59.0478Z" fill="#F6B27B"/>
<path d="M53.3399 59.2772C53.2685 59.5539 53.3954 59.878 53.6333 60.0124C53.7444 60.0757 53.8554 60.0836 53.9506 60.0519C54.0616 60.0124 54.1489 59.9175 54.1806 59.7752C54.2044 59.6646 54.2044 59.5539 54.1806 59.4432L53.4985 59.0479L53.5223 59.0321C53.5223 59.0321 53.5064 59.04 53.4985 59.0479C53.4271 59.0954 53.3716 59.1744 53.3399 59.2772Z" fill="#FFE8CE"/>
<path d="M54.9737 59.933L55.0927 60.2018L55.4258 60.9292L55.7351 60.8422C55.7668 60.8422 55.7986 60.8264 55.8224 60.8185C55.8382 60.8185 55.8462 60.8027 55.862 60.8027L55.6796 60.3125L55.632 60.2888L54.9895 59.9172L54.9578 59.933H54.9737Z" fill="#C41D00"/>
<path d="M54.8151 60.1545C54.7437 60.4312 54.8785 60.7553 55.1085 60.8897C55.2196 60.953 55.3306 60.9609 55.4258 60.9293C55.5289 60.8897 55.6162 60.7949 55.6558 60.6526C55.6875 60.5261 55.6717 60.3996 55.632 60.281L54.9896 59.9094L54.9578 59.9252C54.8865 59.9727 54.8309 60.0517 54.7992 60.1466L54.8151 60.1545Z" fill="#F1842F"/>
<path d="M43.1241 52.9364L43.5841 54.1776L46.8995 56.0829L46.6219 55.3318L46.4474 54.8417L46.3998 54.818L45.7574 54.4464L45.337 54.2092L44.9404 53.98L44.2503 53.5847L43.1241 52.9364Z" fill="#0A0A0A"/>
<path d="M43.5839 54.1772L44.0915 54.027L46.6614 55.4342L46.8993 56.0825L43.5839 54.1772Z" fill="#494949"/>
<path d="M44.2506 53.5847L44.3775 53.8535L44.7107 54.5808L45.02 54.4938C45.02 54.4938 45.0834 54.478 45.1072 54.4701C45.2103 54.4227 45.2897 54.3357 45.3372 54.2013L44.9407 53.9721L44.2586 53.5768L44.2506 53.5847Z" fill="#C41D00"/>
<path d="M44.0918 53.814C44.0204 54.0907 44.1473 54.4149 44.3853 54.5493C44.4963 54.6125 44.6074 54.6204 44.7025 54.5888C44.8136 54.5493 44.9008 54.4544 44.9326 54.3121C44.9564 54.2014 44.9564 54.0907 44.9326 53.9801L44.2504 53.5848L44.2663 53.569C44.2663 53.569 44.2504 53.5769 44.2425 53.5848C44.1711 53.6322 44.1156 53.7113 44.0839 53.814H44.0918Z" fill="#F1842F"/>
<path d="M45.7258 54.4694L45.8447 54.7382L46.1779 55.4656L46.4872 55.3786C46.5189 55.3786 46.5507 55.3628 46.5744 55.3549C46.5903 55.3549 46.5982 55.3391 46.6141 55.3391L46.4317 54.8489L46.3841 54.8252L45.7416 54.4536L45.7099 54.4694H45.7258Z" fill="#F6B27B"/>
<path d="M45.567 54.6909C45.4956 54.9676 45.6305 55.2917 45.8605 55.4261C45.9715 55.4894 46.0826 55.4973 46.1778 55.4656C46.2809 55.4261 46.3681 55.3312 46.4078 55.1889C46.4395 55.0624 46.4236 54.936 46.384 54.8174L45.7415 54.4458L45.7098 54.4616C45.6384 54.509 45.5829 54.5881 45.5512 54.683L45.567 54.6909Z" fill="#FFE8CE"/>
<path d="M56.8297 61.9179L57.5753 62.9298L43.7426 55.1268L42.997 54.1228L56.8297 61.9179Z" fill="#01602E"/>
<path d="M113.303 28.0891L109.63 26.4843L109.971 28.8876L110.741 29.2829L113.303 28.0891Z" fill="#E5E5E5"/>
<path d="M80.4343 28.5708L133.465 24.2859L136.86 29.7883L139.469 30.3417L139.652 30.3891C139.969 30.4524 140.302 30.3654 140.548 30.1441L141.999 28.8317C141.999 28.8317 141.286 23.274 141.286 21.93C141.286 20.586 140.135 19.3053 140.135 19.3053L81.0847 23.527C81.0847 23.527 79.4825 24.0962 79.2842 25.3137C79.0938 26.5311 80.4343 28.5787 80.4343 28.5787V28.5708Z" fill="#018941"/>
<path d="M137.566 22.7917L139.469 30.3417L139.652 30.3891C139.969 30.4524 140.302 30.3654 140.548 30.1441L141.999 28.8317C141.999 28.8317 141.286 23.274 141.286 21.93C141.286 20.586 140.135 19.3053 140.135 19.3053L137.827 21.4161L137.566 22.7996V22.7917Z" fill="#017437"/>
<path d="M79.284 25.3136L134.655 21.5584L133.489 22.9024L133.465 24.2859L80.4341 28.5708C80.4341 28.5708 78.8557 26.4521 79.2761 25.3136H79.284Z" fill="#049649"/>
<path d="M137.827 21.4083L134.655 21.5585L79.2841 25.3058C79.2841 25.3058 79.0858 24.3492 81.0846 23.5191C83.5751 23.3452 140.135 19.2974 140.135 19.2974L137.827 21.4083Z" fill="#00AA51"/>
<path d="M50.6195 40.3663C50.6195 40.5639 50.7623 40.7774 50.9685 40.8959L51.96 41.481C52.1186 41.5837 52.2931 41.5205 52.2772 41.3624V41.3387L52.2455 41.0699C52.2455 40.9118 52.1265 40.7457 51.9679 40.6509L51.254 40.224L50.8575 39.9868C50.7385 39.9156 50.6195 39.9552 50.6195 40.0738V40.3663Z" fill="#D1D1D1"/>
<path d="M51.6029 41.0063L52.2692 41.3383L52.2375 41.0695C52.2375 40.9114 52.1185 40.7454 51.9599 40.6505L51.246 40.2236V40.4766C51.2539 40.6743 51.3967 40.8798 51.6029 41.0063Z" fill="#E7EBEF"/>
<path d="M39.1107 33.7729C39.1107 33.9706 39.2535 34.184 39.4597 34.3026L40.4512 34.8877C40.6098 34.9904 40.7843 34.9272 40.7684 34.7691V34.7453L40.7367 34.4766C40.7367 34.3184 40.6177 34.1524 40.4591 34.0575L39.7453 33.6306L39.3487 33.3935C39.2297 33.3223 39.1107 33.3618 39.1107 33.4804V33.7729Z" fill="#D1D1D1"/>
<path d="M40.0941 34.413L40.7604 34.745L40.7287 34.4762C40.7287 34.3181 40.6097 34.1521 40.4511 34.0572L39.7372 33.6303V33.8833C39.7452 34.0809 39.8879 34.2865 40.0941 34.413Z" fill="#E7EBEF"/>
<path d="M44.1394 36.6982C44.1394 36.8959 44.2821 37.1093 44.4883 37.2279L45.4798 37.8129C45.6384 37.9157 45.8129 37.8525 45.7971 37.6944V37.6706L45.7653 37.4018C45.7653 37.2437 45.6464 37.0777 45.4877 36.9828L44.7739 36.5559L44.3773 36.3188C44.2583 36.2476 44.1394 36.2871 44.1394 36.4057V36.6982Z" fill="#D1D1D1"/>
<path d="M45.1228 37.3308L45.7891 37.6628L45.7574 37.394C45.7574 37.2359 45.6384 37.0699 45.4798 36.975L44.7659 36.5481V36.8011C44.7738 36.9987 44.9166 37.2122 45.1228 37.3308Z" fill="#E7EBEF"/>
<path d="M42.1484 31.141C42.1484 31.141 42.1484 31.5996 41.9422 31.7814C41.8787 31.8367 41.1094 32.2399 41.1094 32.2399C40.9587 32.2478 40.8318 32.1134 40.6414 32.0028C40.0545 31.6707 39.5865 30.8564 39.5865 30.1844C39.5865 29.8998 39.4754 29.805 39.6182 29.6864C39.642 29.6627 40.3241 29.2516 40.3559 29.2358C40.5462 29.133 40.808 29.1567 41.0935 29.3148C41.6804 29.6469 42.1484 30.4611 42.1484 31.1331V31.141Z" fill="url(#paint0_linear_9_1039)"/>
<path d="M41.49 31.5361C41.49 32.2002 41.0141 32.469 40.4351 32.1369C39.8481 31.8049 39.3802 30.9906 39.3802 30.3186C39.3802 29.6466 39.8561 29.3857 40.4351 29.7178C41.0141 30.0498 41.49 30.8641 41.49 31.5361Z" fill="#262626"/>
<path d="M39.5312 30.4052C39.5312 30.9823 39.9357 31.678 40.4433 31.9626C40.6575 32.0812 40.8478 32.1128 40.9985 32.0654C41.2127 31.9943 41.3475 31.7808 41.3475 31.4488C41.3475 30.8716 40.943 30.1759 40.4354 29.8913C40.0705 29.6779 39.7533 29.749 39.6105 30.0178C39.555 30.1206 39.5232 30.2471 39.5232 30.4052H39.5312Z" fill="#D6D0A9"/>
<path d="M39.61 30.0185C39.61 30.0185 40.3794 30.5245 40.5063 30.7854C40.6332 31.0463 40.887 31.3467 40.9346 31.6313C40.9584 31.7894 40.9822 31.9554 40.9901 32.074C41.2042 32.0029 41.3391 31.7894 41.3391 31.4574C41.3391 30.8803 40.9346 30.1845 40.4269 29.8999C40.0621 29.6865 39.7448 29.7576 39.6021 30.0264L39.61 30.0185Z" fill="#6A866B"/>
<path d="M41.1093 31.1092C41.1093 31.4255 40.8873 31.552 40.6097 31.3938C40.332 31.2357 40.11 30.8483 40.11 30.5321C40.11 30.2159 40.332 30.0894 40.6097 30.2475C40.8873 30.4056 41.1093 30.793 41.1093 31.1092Z" fill="#F5F4EA"/>
<g style="mix-blend-mode:multiply">
<path d="M54.0617 35.2993L54.1886 33.9158L57.5833 33.9791C57.8451 33.9949 58.1068 34.0502 58.3051 34.1451C58.7255 34.3586 58.6938 34.6985 58.2417 34.8961C58.0751 34.9673 57.8768 35.0068 57.6706 35.0226L54.0696 35.2993H54.0617Z" fill="#ABABAB"/>
</g>
<path d="M55.3545 33.7578L52.7688 33.7183V34.659C52.753 34.8172 52.8719 34.9753 53.1099 35.1018C53.5937 35.3468 54.4107 35.3627 54.9421 35.1334C55.2038 35.0148 55.3466 34.8567 55.3545 34.6986V33.7578Z" fill="#B6D1D3"/>
<path d="M55.2356 31.4104L53.0068 31.3867L52.7688 33.7188C52.753 33.877 52.8719 34.0351 53.1099 34.1616C53.5937 34.4066 54.4107 34.4225 54.9421 34.1932C55.2038 34.0746 55.3466 33.9165 55.3545 33.7584L55.2356 31.4104Z" fill="#DB6600"/>
<path d="M54.9423 31.0381C54.5219 30.8247 53.816 30.8088 53.3639 31.0144C52.9118 31.212 52.88 31.552 53.3004 31.7654C53.7208 31.9789 54.4267 31.9947 54.8788 31.7892C55.3309 31.5915 55.3626 31.2516 54.9423 31.0381Z" fill="#FFAB1E"/>
<path d="M54.958 33.3143C54.5059 33.085 53.7445 33.0692 53.2606 33.2906C52.7689 33.504 52.7451 33.8677 53.1893 34.097C53.6414 34.3262 54.4028 34.342 54.8866 34.1207C55.3784 33.9072 55.4022 33.5436 54.958 33.3143Z" fill="#FFA000"/>
<path d="M53.7364 32.4371C53.6174 32.7455 53.5698 33.2514 53.6967 33.536C53.8157 33.8286 54.363 33.7416 54.474 33.4333C54.593 33.1249 54.5533 32.9589 54.4344 32.6664C54.3154 32.3739 53.8554 32.1209 53.7364 32.4292V32.4371Z" fill="#FFA000"/>
<path d="M54.1725 32.7065C54.0774 33.0228 54.0774 33.4734 54.1805 33.7106C54.2836 33.9477 54.4422 33.8766 54.5453 33.5524C54.6405 33.2362 54.6405 32.7856 54.5374 32.5484C54.4343 32.3192 54.2757 32.3824 54.1725 32.7065Z" fill="#FFAB1E"/>
<path d="M52.1027 95.7935L55.2595 91.5244L52.1027 90.892L52.1979 90.6469L55.6323 90.5679L55.9099 86.1248L56.1082 86.0142L56.3858 90.133L59.717 86.3778L59.8202 86.528L56.7586 90.6627L59.8202 91.2873L59.717 91.5482L56.3858 91.6272L56.1082 96.0623L55.9099 96.1809L55.6323 92.0541L52.1979 95.9279L52.1027 95.7935Z" fill="#241415"/>
<path d="M54.3154 93.0033L54.7358 93.5805L64.4996 83.7062L68.9889 81.5954L69.9089 81.5796L70.3531 82.2357L70.9321 81.4373L70.1786 80.4332L64.8486 82.4729L58.3288 88.8686L58.0353 88.2836L56.7663 89.1453L55.7986 90.513L56.0286 91.185L54.3154 93.0033Z" fill="#241415"/>
<path d="M70.8368 81.8641L71.5427 82.2594L71.511 89.6276L63.0955 93.5804L62.3896 93.1851V92.4183L67.212 84.892L70.8368 81.8641Z" fill="#00AA51"/>
<path d="M71.543 82.2594L73.0183 87.4218L72.2172 90.0228L67.4979 93.2088L63.0958 93.5804V92.8135L67.9183 85.2873L71.543 82.2594Z" fill="#01602E"/>
<path d="M63.5953 92.7267L64.8326 92.4262L69.3933 85.4929L68.156 85.7854L63.5953 92.7267Z" fill="#D3D3D3"/>
<path d="M67.4501 86.8602L68.6874 86.5677L69.0443 86.0222L67.807 86.3147L67.4501 86.8602Z" fill="#EC2D24"/>
<path d="M66.673 88.0309L67.9183 87.7384L68.2752 87.1929L67.0299 87.4933L66.673 88.0309Z" fill="#EC2D24"/>
<path d="M65.9035 89.2086L67.1408 88.9082L67.4977 88.3706L66.2604 88.6631L65.9035 89.2086Z" fill="#EC2D24"/>
<path d="M65.1339 90.3785L66.3713 90.086L66.7282 89.5405L65.4909 89.833L65.1339 90.3785Z" fill="#EC2D24"/>
<path d="M64.3648 91.5485L65.6021 91.2559L65.959 90.7104L64.7217 91.003L64.3648 91.5485Z" fill="#EC2D24"/>
<path d="M63.5955 92.7184L64.8328 92.4259L65.1897 91.8804L63.9524 92.1808L63.5955 92.7184Z" fill="#EC2D24"/>
<path d="M113.049 36.7458L113.731 36.2477V30.6346L113.049 31.1327V36.7458Z" fill="#D3D3D3"/>
<path d="M113.049 32.0021L113.731 31.504V31.0613L113.049 31.5672V32.0021Z" fill="#EC2D24"/>
<path d="M113.049 32.9515L113.731 32.4535V32.0107L113.049 32.5167V32.9515Z" fill="#EC2D24"/>
<path d="M113.049 33.8996L113.731 33.4015V32.9588L113.049 33.4648V33.8996Z" fill="#EC2D24"/>
<path d="M113.049 34.8489L113.731 34.3508V33.9081L113.049 34.414V34.8489Z" fill="#EC2D24"/>
<path d="M113.049 35.7969L113.731 35.2989V34.8561L113.049 35.3542V35.7969Z" fill="#EC2D24"/>
<path d="M113.049 36.7457L113.731 36.2477V35.8049L113.049 36.303V36.7457Z" fill="#EC2D24"/>
<path d="M63.3101 60.2733L63.9605 60.1705L62.4376 50.9683L65.2612 49.4504L64.8647 53.6878L65.523 53.7511L65.9592 49.0788L71.2496 46.2406L65.8403 43.3076L65.3406 48.6756L61.7238 50.6204L63.318 60.2812L63.3101 60.2733ZM69.8695 46.2327L66.0306 48.2961L66.4034 44.3512L69.8695 46.2327Z" fill="#007E3C"/>
<path d="M69.8221 45.9807L70.4787 46.0283L69.7204 56.4206L69.0638 56.373L69.8221 45.9807Z" fill="#007E3C"/>
<defs>
<linearGradient id="paint0_linear_9_1039" x1="41.3632" y1="31.6075" x2="40.148" y2="29.2878" gradientUnits="userSpaceOnUse">
<stop/>
<stop offset="0.11" stop-color="#1A1A1A"/>
<stop offset="0.19" stop-color="#2B2B2B"/>
<stop offset="0.26" stop-color="#333333"/>
<stop offset="0.27" stop-color="#333333"/>
<stop offset="0.33" stop-color="#333333"/>
<stop offset="0.4" stop-color="#333333"/>
<stop offset="0.41" stop-color="#333333"/>
<stop offset="0.95" stop-color="#333333"/>
<stop offset="1" stop-color="#333333"/>
</linearGradient>
</defs>
</svg>
