<svg width="130" height="31" viewBox="0 0 130 31" fill="none" xmlns="http://www.w3.org/2000/svg">
<g clip-path="url(#clip0_2001_54)">
<path d="M30.1172 22.1151C31.6614 18.8964 32.0283 15.2547 31.1561 11.802C30.2839 8.34941 28.2259 5.29639 25.328 3.15613C22.43 1.01587 18.8689 -0.0811282 15.243 0.049518C11.6172 0.180164 8.1478 1.53049 5.41796 3.87353C2.68811 6.21657 0.864266 9.40947 0.252985 12.9155C-0.358297 16.4216 0.280254 20.0271 2.0613 23.126C3.84235 26.2249 6.65732 28.6282 10.033 29.932C13.4088 31.2359 17.1394 31.3607 20.598 30.2855C18.706 28.2418 17.4885 25.6852 17.1051 22.9511C17.2737 22.9511 17.4422 22.9511 17.6009 22.9511C21.0609 22.9465 24.3991 24.2033 26.9665 26.4773C27.6849 25.7731 28.3332 25.0033 28.9025 24.1783C25.7325 23.9154 22.7483 22.6022 20.441 20.4551C18.1336 18.308 16.6406 15.4548 16.2077 12.365C16.3763 12.365 16.5448 12.365 16.7035 12.365C19.7107 12.3635 22.6386 13.3107 25.0542 15.0666C27.4699 16.8224 29.245 19.2937 30.1172 22.1151ZM15.3029 1.78136C15.4714 1.78136 15.64 1.78136 15.8111 1.78136C19.1948 1.77944 22.4648 2.97843 25.0167 5.15671C27.5686 7.33499 29.2298 10.3453 29.6933 13.6312C29.5248 13.6312 29.3562 13.6312 29.1975 13.6312C25.8119 13.6355 22.5391 12.4377 19.9848 10.2592C17.4304 8.08074 15.7672 5.06909 15.3029 1.78136Z" fill="#F7323F"/>
<path d="M47.6038 26.5746L44.8744 23.3861V4.52997H40.0528V26.5746H47.6038Z" fill="#007934"/>
<path d="M49.0738 11.8085L51.8032 14.9969V26.5745H56.6223V11.8085H49.0738Z" fill="#007934"/>
<path d="M70.2716 26.5746L67.5422 23.3861V4.52997H62.7231V26.5746H70.2716Z" fill="#007934"/>
<path d="M71.7416 11.8085L74.4709 14.9969V26.5745H79.2925V11.8085H71.7416Z" fill="#007934"/>
<path d="M122.452 11.8085L125.181 14.9969V26.5745H130V11.8085H122.452Z" fill="#007934"/>
<path d="M95.0316 11.8182H84.2902L87.017 15.0067H92.8724C93.1663 15.0067 93.4481 15.1211 93.6559 15.3248C93.8637 15.5286 93.9805 15.8049 93.9805 16.093L94.0102 17.8257H87.3021C86.3055 17.8283 85.3505 18.2175 84.6459 18.9084C83.9412 19.5992 83.5441 20.5354 83.5415 21.5124V22.8782C83.5415 23.8585 83.9388 24.7987 84.6459 25.4919C85.353 26.1851 86.312 26.5745 87.312 26.5745H98.8145V15.5146C98.8145 15.0281 98.7165 14.5465 98.5263 14.0972C98.336 13.648 98.0572 13.2399 97.7057 12.8965C97.3543 12.5531 96.9372 12.2811 96.4783 12.0961C96.0194 11.911 95.5278 11.8166 95.0316 11.8182ZM93.983 24.035H89.8331C89.4387 24.035 89.0603 23.8813 88.7814 23.6079C88.5025 23.3344 88.3458 22.9635 88.3458 22.5768V21.719C88.3458 21.3322 88.5025 20.9613 88.7814 20.6879C89.0603 20.4144 89.4387 20.2608 89.8331 20.2608H93.983V24.035Z" fill="#007934"/>
<path d="M116.143 11.8085H101.886L104.613 14.9969V26.5745H109.434V14.9969H113.988C114.134 14.9969 114.278 15.025 114.412 15.0796C114.547 15.1342 114.669 15.2142 114.772 15.3151C114.875 15.416 114.956 15.5357 115.012 15.6675C115.068 15.7993 115.096 15.9406 115.096 16.0832V26.5745H119.916V15.5049C119.916 15.0192 119.818 14.5384 119.628 14.0897C119.439 13.6411 119.161 13.2335 118.81 12.8903C118.46 12.547 118.044 12.2748 117.586 12.0891C117.128 11.9035 116.638 11.8082 116.143 11.8085Z" fill="#007934"/>
<path d="M56.6223 5.74017H49.0738V8.16311H56.6223V5.74017Z" fill="#F7323F"/>
<path d="M130 5.74017H71.7416V8.16311H130V5.74017Z" fill="#F7323F"/>
</g>
<defs>
<clipPath id="clip0_2001_54">
<rect width="130" height="31" fill="white"/>
</clipPath>
</defs>
</svg>
