<svg width="113" height="100" viewBox="0 0 113 100" fill="none" xmlns="http://www.w3.org/2000/svg">
<path d="M113 44.896C113 45.2831 112.68 45.7879 112.292 46.0066C111.904 46.2338 111.584 46.0992 111.584 45.7122C111.584 45.3251 111.904 44.8203 112.292 44.6015C112.68 44.3828 113 44.509 113 44.896Z" fill="#01602E"/>
<path d="M111.584 45.7122C111.584 45.3251 111.904 44.8203 112.292 44.6016C112.503 44.4753 112.696 44.4669 112.823 44.5342L98.783 35.8847C98.6566 35.809 98.4628 35.8258 98.2521 35.952C97.8645 36.1792 97.5442 36.6756 97.5442 37.0627C97.5442 37.2394 97.6117 37.3656 97.7128 37.4245L111.753 46.074C111.643 46.0151 111.576 45.8889 111.576 45.7122H111.584Z" fill="#00833E"/>
<path d="M113 48.6571C113 49.0441 112.68 49.549 112.292 49.7677C111.904 49.9949 111.584 49.8603 111.584 49.4732C111.584 49.0862 111.904 48.5814 112.292 48.3626C112.68 48.1354 113 48.27 113 48.6571Z" fill="#01602E"/>
<path d="M111.584 49.4732C111.584 49.0861 111.904 48.5813 112.292 48.3625C112.503 48.2363 112.696 48.2279 112.823 48.2952L98.783 39.6457C98.6566 39.57 98.4628 39.5868 98.2521 39.713C97.8645 39.9402 97.5442 40.4366 97.5442 40.8237C97.5442 41.0004 97.6117 41.1266 97.7128 41.1855L111.753 49.835C111.643 49.7761 111.576 49.6499 111.576 49.4732H111.584Z" fill="#00833E"/>
<path d="M109.081 55.304L98.4544 48.8674L103.764 45.8636L108.542 49.9359L109.629 53.6128L109.081 55.304Z" fill="#0A090D"/>
<path d="M103.081 51.0046C103.081 55.0012 99.8365 60.1169 95.8336 62.4223C91.8306 64.7277 88.5861 63.3646 88.5861 59.3596C88.5861 55.3546 91.8306 50.2473 95.8336 47.9419C99.8365 45.6365 103.081 46.9996 103.081 51.0046Z" fill="#0A090D"/>
<path d="M88.5778 59.368C88.5778 55.3714 91.8223 50.2557 95.8252 47.9503C98.0163 46.6882 99.9714 46.5284 101.303 47.3024L97.8056 45.2915C96.4741 44.5258 94.519 44.6773 92.3279 45.9394C88.325 48.2448 85.0805 53.3605 85.0805 57.3571C85.0805 59.1661 85.7547 60.4366 86.8502 61.0676L90.3391 63.087C89.2351 62.4475 88.5694 61.177 88.5694 59.368H88.5778Z" fill="#393942"/>
<path d="M107.969 53.8316C107.969 57.8282 104.724 62.9439 100.721 65.2493C96.7184 67.5547 93.474 66.1917 93.474 62.1866C93.474 58.1816 96.7184 53.0744 100.721 50.769C104.724 48.4635 107.969 49.8266 107.969 53.8316Z" fill="#0A090D"/>
<path d="M104.682 55.7247C104.682 57.9123 102.904 60.7057 100.721 61.9678C98.5302 63.2299 96.7605 62.4811 96.7605 60.2934C96.7605 58.1058 98.5386 55.3124 100.721 54.0503C102.912 52.7882 104.682 53.5371 104.682 55.7247Z" fill="#01602E"/>
<path d="M104.168 56.0192C104.168 57.9207 102.626 60.3524 100.713 61.4546C98.8084 62.5568 97.2578 61.9005 97.2578 59.999C97.2578 58.0974 98.8 55.6658 100.713 54.5636C102.618 53.4614 104.168 54.1177 104.168 56.0192Z" fill="#004320"/>
<path d="M97.3673 59.1323L99.2044 60.1925L102.238 55.8172L100.401 54.7655C98.9095 55.7499 97.7044 57.5253 97.3673 59.1323Z" fill="#01602E"/>
<path d="M102.727 56.8522C102.727 57.9628 101.825 59.3764 100.721 60.0158C99.609 60.6553 98.7157 60.2767 98.7157 59.166C98.7157 58.0554 99.6174 56.6418 100.721 56.0024C101.834 55.3629 102.727 55.7416 102.727 56.8522Z" fill="#00833E"/>
<path d="M93.4657 62.195C93.4657 58.1984 96.7102 53.0828 100.713 50.7773C102.904 49.5153 104.859 49.3554 106.191 50.1295L102.694 48.1185C101.362 47.3529 99.4069 47.5043 97.2158 48.7664C93.2129 51.0718 89.9684 56.1875 89.9684 60.1841C89.9684 61.9931 90.6426 63.2636 91.7381 63.8946L95.227 65.914C94.1231 65.2745 93.4573 64.004 93.4573 62.195H93.4657Z" fill="#393942"/>
<path d="M90.5159 64.004C90.5159 68.0006 87.2714 73.1163 83.2685 75.4217C79.2656 77.7271 76.0211 76.364 76.0211 72.359C76.0211 68.354 79.2656 63.2467 83.2685 60.9413C87.2714 58.6359 90.5159 59.999 90.5159 64.004Z" fill="#0A090D"/>
<path d="M87.2293 65.8972C87.2293 68.0848 85.4511 70.8782 83.2685 72.1403C81.0774 73.4024 79.3077 72.6536 79.3077 70.4659C79.3077 68.2783 81.0858 65.4849 83.2685 64.2228C85.4596 62.9607 87.2293 63.7096 87.2293 65.8972Z" fill="#01602E"/>
<path d="M86.715 66.1917C86.715 68.0932 85.1728 70.5249 83.2598 71.6271C81.3553 72.7293 79.8047 72.073 79.8047 70.1715C79.8047 68.2699 81.3469 65.8383 83.2598 64.7361C85.1644 63.6338 86.715 64.2901 86.715 66.1917Z" fill="#004320"/>
<path d="M79.9144 69.3048L81.7515 70.365L84.7853 65.9897L82.9482 64.938C81.4566 65.9224 80.2515 67.6978 79.9144 69.3048Z" fill="#01602E"/>
<path d="M85.2741 67.0247C85.2741 68.1353 84.3724 69.5489 83.2684 70.1883C82.156 70.8278 81.2627 70.4491 81.2627 69.3385C81.2627 68.2279 82.1644 66.8143 83.2684 66.1749C84.3724 65.5354 85.2741 65.914 85.2741 67.0247Z" fill="#00833E"/>
<path d="M76.0126 72.3591C76.0126 68.3625 79.2571 63.2468 83.26 60.9414C85.4511 59.6793 87.4062 59.5195 88.7377 60.2935L85.2404 58.2826C83.9089 57.5169 81.9538 57.6684 79.7627 58.9305C75.7598 61.2359 72.5153 66.3516 72.5153 70.3482C72.5153 72.1572 73.1895 73.4277 74.285 74.0587L77.7739 76.0781C76.6699 75.4386 76.0042 74.1681 76.0042 72.3591H76.0126Z" fill="#393942"/>
<path d="M74.538 74.8412L64.5096 70.0116C64.5096 70.0116 65.2512 62.397 69.1277 58.535C73.0042 54.673 93.8026 41.8334 97.814 40.79C101.825 39.7551 107.286 46.4021 107.286 46.4021L94.0049 52.5695L79.7966 60.6385L76.3414 67.5884L74.5464 74.8327L74.538 74.8412Z" fill="#35353F"/>
<path d="M109.941 54.7656C109.983 50.222 108.516 47.6305 107.067 46.1834C105.837 44.9465 103.907 44.7277 102.398 45.6028L80.302 58.434L80.8329 62.1614L104.69 48.657C109.528 48.2279 109.073 55.3125 109.073 55.3125L109.932 54.774L109.941 54.7656Z" fill="#292930"/>
<path d="M80.3023 58.4341C75.76 62.1699 74.538 74.8412 74.538 74.8412L76.1139 74.227C76.1139 65.8888 80.8416 62.153 80.8416 62.153L80.3107 58.4257L80.3023 58.4341Z" fill="#292930"/>
<path d="M53.2761 64.6436L55.8211 66.1412L47.0483 71.2653L47.0568 68.2531L53.2761 64.6436Z" fill="#292930"/>
<path d="M53.2762 64.6435L47.0569 68.2531L39.2111 63.7095L45.4304 60.1L53.2762 64.6435Z" fill="#35353F"/>
<path d="M71.8497 63.7179L71.8244 72.2412L54.2452 82.4473L54.262 73.9156L71.8497 63.7179Z" fill="#292930"/>
<path d="M54.262 73.9156L54.2452 82.4473L47.6972 78.6694L47.7225 70.1461L54.262 73.9156Z" fill="#0A090D"/>
<path d="M71.8497 63.7179L54.262 73.9156L47.7225 70.1462L65.3017 59.9485L71.8497 63.7179Z" fill="#35353F"/>
<path d="M53.6973 71.9215C53.849 72.0057 54.0428 72.0562 54.245 72.0478V73.2594C54.0512 73.2594 53.8574 73.2173 53.7057 73.1332C53.554 73.049 53.4866 72.9312 53.4866 72.8218V71.6102C53.4866 71.7196 53.554 71.8374 53.7057 71.9215H53.6973Z" fill="#0A090D"/>
<path d="M54.7761 71.9215C54.9277 71.8374 55.0036 71.7196 55.0036 71.6102V72.8218C55.0036 72.9396 54.9362 73.049 54.7845 73.1332C54.6328 73.2173 54.439 73.2594 54.2451 73.2594V72.0478C54.439 72.0478 54.6328 72.0057 54.7845 71.9215H54.7761Z" fill="#292930"/>
<path d="M53.6975 71.2905C53.3941 71.4672 53.3941 71.7448 53.6975 71.9131C53.9924 72.0898 54.4812 72.0898 54.7762 71.9131C55.0796 71.7364 55.0796 71.4588 54.7762 71.2905C54.4812 71.1138 53.9924 71.1138 53.6975 71.2905Z" fill="#35353F"/>
<path d="M53.5119 71.7112C53.7141 71.829 53.9754 71.8879 54.245 71.8879V72.4012C53.9838 72.4012 53.7226 72.3423 53.5203 72.2245C53.318 72.1067 53.2253 71.9552 53.2253 71.8038V71.2905C53.2253 71.442 53.318 71.5934 53.5203 71.7112H53.5119Z" fill="#01602E"/>
<path d="M54.9614 71.7112C55.1637 71.5934 55.2648 71.442 55.2648 71.2905V71.8038C55.2648 71.9552 55.1721 72.1067 54.9699 72.2245C54.7676 72.3423 54.5064 72.4012 54.2451 72.4012V71.8879C54.5064 71.8879 54.7676 71.829 54.9614 71.7112Z" fill="#01602E"/>
<path d="M53.512 70.8698C53.1075 71.1054 53.1075 71.4756 53.512 71.7112C53.908 71.9468 54.5654 71.9468 54.9614 71.7112C55.3659 71.4756 55.3659 71.1054 54.9614 70.8698C54.5654 70.6342 53.9165 70.6342 53.512 70.8698Z" fill="#00AA51"/>
<path d="M111.896 23.8865L76.1138 3.25559L76.965 2.76758L112.747 23.3901L111.896 23.8865Z" fill="#E3E3E1"/>
<path d="M111.896 23.8865V39.4438L112.747 38.9474V23.3901L111.896 23.8865Z" fill="#939294"/>
<path d="M76.1139 3.25562V18.813L111.896 39.4439V23.8865L76.1139 3.25562Z" fill="#B4B3B5"/>
<path d="M57.532 70.7688L110.556 38.6697L77.7742 19.772L22.559 51.5935L57.532 70.7688Z" fill="#818182"/>
<path d="M77.7741 4.21474L20.8988 37.2141V35.077L76.1139 3.25555L77.7741 4.21474Z" fill="#E3E3E1"/>
<path d="M77.7741 19.7721V4.21472L20.8988 37.2141L22.5589 51.5935L77.7741 19.7721Z" fill="#939294"/>
<path d="M111.896 23.8864L55.0206 56.8858V54.7487L110.236 22.9272L111.896 23.8864Z" fill="#E3E3E1"/>
<path d="M111.896 39.4438V23.8865L57.5403 55.4219L57.5319 70.7688L111.896 39.4438Z" fill="#939294"/>
<path d="M109.798 26.7135L58.9309 56.0024V67.5463L109.798 38.2322V26.7135Z" fill="#727173"/>
<path d="M109.798 26.7136V38.2322L110.497 38.6361V26.3097L109.798 26.7136Z" fill="#B4B3B5"/>
<path d="M109.798 38.2322L58.9309 67.5463V68.354L110.497 38.636L109.798 38.2322Z" fill="#E3E3E1"/>
<path d="M102.121 31.1393V42.6579L102.82 43.0618V30.7354L102.121 31.1393Z" fill="#B4B3B5"/>
<path d="M91.6453 37.1805V48.6991L92.3448 49.103V36.7682L91.6453 37.1805Z" fill="#B4B3B5"/>
<path d="M81.1702 43.2132V54.7319L81.8697 55.1357V42.8093L81.1702 43.2132Z" fill="#B4B3B5"/>
<path d="M71.3947 48.8506V61.177L74.1926 59.5615V47.2351L71.3947 48.8506Z" fill="#939294"/>
<path d="M81.8698 42.8094V55.1358L84.6592 53.5287V41.2023L81.8698 42.8094Z" fill="#939294"/>
<path d="M92.3449 36.7682V49.103L95.1343 47.4875V35.1611L92.3449 36.7682Z" fill="#939294"/>
<path d="M102.761 30.8531V43.1795L105.55 41.5725V29.2377L102.761 30.8531Z" fill="#939294"/>
<path d="M70.6952 49.2545V60.7731L71.3947 61.177V48.8506L70.6952 49.2545Z" fill="#B4B3B5"/>
<path d="M73.0128 6.50332L76.3921 1.00062C76.5354 0.773442 76.7376 0.588336 76.9736 0.470541L77.0242 0.445299C77.2517 0.335918 77.5214 0.478955 77.5382 0.731372L77.8079 3.65942L73.0044 6.50332H73.0128Z" fill="#939294"/>
<path d="M76.9821 0.470538L77.0327 0.445296C77.1001 0.41164 77.1675 0.403226 77.2265 0.41164L76.6956 0.0666697C76.5944 -0.000641643 76.4596 -0.0258834 76.3332 0.033014L76.2826 0.0582558C76.0382 0.176051 75.836 0.361157 75.7012 0.588333L72.3218 6.09104L73.0213 6.4949L76.4006 0.992201C76.5439 0.765025 76.7461 0.579919 76.9821 0.462124V0.470538Z" fill="#E3E3E1"/>
<path d="M77.5298 1.42134C77.5298 1.65693 77.336 1.96825 77.0916 2.10287C76.8557 2.23749 76.6534 2.16177 76.6534 1.91776C76.6534 1.67376 76.8472 1.37086 77.0916 1.23623C77.3276 1.10161 77.5298 1.17734 77.5298 1.42134Z" fill="#0A090D"/>
<path d="M76.6532 1.92614C76.6532 1.69055 76.847 1.37924 77.0914 1.24462C77.2263 1.16889 77.3358 1.16048 77.4201 1.21096L77.26 1.11841C77.1841 1.07634 77.0661 1.07634 76.9313 1.15206C76.6953 1.28669 76.4931 1.598 76.4931 1.83359C76.4931 1.94297 76.5352 2.01028 76.6027 2.05235L76.7628 2.15332C76.6953 2.11125 76.6532 2.03553 76.6532 1.93456V1.92614Z" fill="#35353F"/>
<path d="M107.227 26.2255L110.607 20.7228C110.75 20.4957 110.952 20.3106 111.188 20.1843L111.239 20.1591C111.466 20.0497 111.736 20.1928 111.753 20.4452L112.022 23.3732L107.219 26.2171L107.227 26.2255Z" fill="#939294"/>
<path d="M111.196 20.1928L111.247 20.1675C111.314 20.1339 111.382 20.1255 111.441 20.1339L110.91 19.7889C110.809 19.7216 110.674 19.6963 110.547 19.7552L110.497 19.7805C110.252 19.8983 110.05 20.0834 109.915 20.3106L106.536 25.8133L107.236 26.2171L110.615 20.7144C110.758 20.4873 110.96 20.3021 111.196 20.1759V20.1928Z" fill="#E3E3E1"/>
<path d="M111.744 21.1436C111.744 21.3792 111.55 21.6905 111.306 21.8251C111.07 21.9597 110.868 21.884 110.868 21.64C110.868 21.396 111.062 21.0931 111.306 20.9585C111.542 20.8238 111.744 20.8996 111.744 21.1436Z" fill="#0A090D"/>
<path d="M110.868 21.6484C110.868 21.4128 111.062 21.1015 111.306 20.9668C111.441 20.8911 111.551 20.8827 111.635 20.9332L111.475 20.8406C111.399 20.7986 111.281 20.7986 111.146 20.8743C110.91 21.0089 110.708 21.3202 110.708 21.5558C110.708 21.6652 110.75 21.7325 110.817 21.7746L110.977 21.8755C110.91 21.8335 110.868 21.7578 110.868 21.6568V21.6484Z" fill="#35353F"/>
<path d="M56.6809 49.5321L20.8989 28.9012L21.75 28.4131L57.532 49.0357L56.6809 49.5321Z" fill="#E3E3E1"/>
<path d="M56.6809 49.5321V71.2652L57.532 70.7688V49.0356L56.6809 49.5321Z" fill="#939294"/>
<path d="M20.899 28.9012V50.6343L56.681 71.2653V49.5321L20.899 28.9012Z" fill="#B4B3B5"/>
<path d="M71.7653 73.7474L71.2773 73.4613V66.9406L71.7653 67.2266V73.7474Z" fill="#00833E"/>
<path d="M55.4165 83.2467L54.9193 82.9606L71.2765 73.4613L71.7653 73.7474L55.4165 83.2467Z" fill="#00AA51"/>
<path d="M54.4222 84.9631L53.9342 84.6771V75.8761L54.4306 76.1622L54.4222 84.9631Z" fill="#00833E"/>
<path d="M54.4306 76.1622L53.9334 75.8761L72.271 65.2241L72.7598 65.5102L54.4306 76.1622Z" fill="#00AA51"/>
<path d="M54.4222 84.9631L72.7598 74.3195V65.5186L54.4306 76.1706V84.9715L54.4222 84.9631ZM71.757 73.7474L55.4082 83.2467V76.7259L71.7654 67.2266V73.7474H71.757Z" fill="#01602E"/>
<path d="M1.70171 72.8051V83.3393L28.9975 98.4002L38.4107 93.6379V82.094C38.4107 82.094 30.2953 85.8046 24.8766 84.5256C19.4579 83.2467 1.70171 72.8135 1.70171 72.8135V72.8051Z" fill="#00AA51"/>
<path d="M29.8655 88.4129L29.7222 97.8617L35.2505 95.3039L35.2252 94.2269L35.6297 86.6207L29.8655 88.4129Z" fill="#01602E"/>
<path d="M48.9536 74.7065C49.1895 74.7906 49.4087 74.8916 49.6278 75.001L50.2935 74.8579C50.2935 74.8579 51.4228 75.1776 52.4846 76.6837C53.5549 78.1982 54.0352 82.1275 54.0352 82.1275L53.9341 82.5651L43.8804 77.2643C43.8804 77.2643 47.1839 74.0754 48.9536 74.7149V74.7065Z" fill="#0A090D"/>
<path d="M49.5598 75.4385L50.8914 76.2883C50.8914 76.2883 53.2173 76.6838 53.9252 82.5567L54.1106 82.4641L54.2875 82.38C54.2875 82.38 53.7987 78.173 52.7285 76.6585C51.6667 75.1524 49.779 73.8735 49.779 73.8735L49.5514 75.4385H49.5598Z" fill="#292930"/>
<path d="M54.2032 84.8201C54.2032 88.8168 50.9587 93.9324 46.9558 96.2378C42.9528 98.5433 39.7083 97.1802 39.7083 93.1752C39.7083 89.1701 42.9528 84.0629 46.9558 81.7575C50.9587 79.4521 54.2032 80.8151 54.2032 84.8201Z" fill="#0A090D"/>
<path d="M50.9165 86.7132C50.9165 88.9008 49.1384 91.6943 46.9557 92.9563C44.7647 94.2184 42.995 93.4696 42.995 91.282C42.995 89.0944 44.7731 86.3009 46.9557 85.0388C49.1468 83.7768 50.9165 84.5256 50.9165 86.7132Z" fill="#01602E"/>
<path d="M50.4024 87.0077C50.4024 88.9093 48.8602 91.3409 46.9472 92.4431C45.0427 93.5453 43.4921 92.889 43.4921 90.9875C43.4921 89.086 45.0342 86.6543 46.9472 85.5521C48.8518 84.4499 50.4024 85.1062 50.4024 87.0077Z" fill="#004320"/>
<path d="M43.6016 90.1208L45.4388 91.181L48.4726 86.8058L46.6354 85.754C45.1438 86.7385 43.9387 88.5138 43.6016 90.1208Z" fill="#01602E"/>
<path d="M48.9613 87.8406C48.9613 88.9512 48.0596 90.3648 46.9557 91.0042C45.8433 91.6437 44.95 91.2651 44.95 90.1544C44.95 89.0438 45.8517 87.6302 46.9557 86.9908C48.0681 86.3513 48.9613 86.73 48.9613 87.8406Z" fill="#00833E"/>
<path d="M39.7 93.1751C39.7 89.1785 42.9445 84.0629 46.9474 81.7574C49.1385 80.4954 51.0936 80.3355 52.4251 81.1096L48.9278 79.0986C47.5963 78.333 45.6412 78.4844 43.4501 79.7465C39.4472 82.0519 36.2027 87.1676 36.2027 91.1642C36.2027 92.9732 36.8769 94.2437 37.9724 94.8747L41.4613 96.8941C40.3573 96.2546 39.6916 94.9841 39.6916 93.1751H39.7Z" fill="#393942"/>
<path d="M49.796 73.8821L50.8915 75.5985C50.8915 75.5985 45.4812 78.7622 43.8379 80.5375C42.2031 82.3128 40.0962 84.9211 39.5316 87.6809C38.967 90.4407 39.026 94.9253 39.026 94.9253H37.7788L36.8602 91.8374C36.8602 91.8374 37.4248 85.8551 37.3658 85.8972C37.3068 85.9392 39.4052 80.0411 39.4052 80.0411L45.4981 75.0684L49.796 73.8905V73.8821Z" fill="#292930"/>
<path d="M49.2649 73.4276L49.7958 73.882C49.7958 73.882 44.8238 77.1971 44.1074 77.6935C41.9669 79.1659 39.464 82.8933 38.7056 84.8537C37.9471 86.8142 37.787 93.1078 37.787 94.9252L36.7336 94.6644L35.2336 94.2353C35.2336 94.2353 34.9555 87.4536 35.8403 84.1806C36.7336 80.9076 43.3743 74.4878 46.9643 73.3435L49.2649 73.4361V73.4276Z" fill="#35353F"/>
<path d="M31.4243 97.9121L39.0257 94.9167V95.9348L31.399 98.9723L31.4243 97.9121Z" fill="#0A090D"/>
<path d="M37.7784 94.9167L35.225 94.2268L31.399 96.4817L31.4243 97.9121L39.0257 94.9167H37.7784Z" fill="#35353F"/>
<path d="M35.183 89.1112L37.3067 89.7086C37.3067 89.7086 33.4049 92.603 31.5677 92.5862L30.9357 91.3661L35.183 89.1112Z" fill="#35353F"/>
<path d="M31.5676 92.5862C33.4048 92.603 37.3066 89.7086 37.3066 89.7086V90.1461C37.3066 90.1461 33.3121 93.0237 31.4749 93.0069L30.9356 91.8037V91.3662L31.5676 92.5862Z" fill="#0A090D"/>
<path d="M2.29175 77.7439L1.14565 77.0876C1.14565 77.0876 -0.994873 78.4255 0.589445 79.3426C2.18219 80.2597 27.5566 94.8915 27.5566 94.8915C27.5566 94.8915 28.9639 95.7161 31.3235 94.4372L29.4611 93.4022L26.7475 92.5777L3.05861 78.9303L2.28331 77.7439H2.29175Z" fill="#00AA51"/>
<path d="M31.3318 94.4287C28.9721 95.7076 27.5648 94.883 27.5648 94.883C27.5648 94.883 0.766212 79.4351 0.597668 79.3341C0.167879 79.0901 0.016201 78.8124 0.016201 78.5348V83.3896C0.016201 83.6673 0.167879 83.9449 0.597668 84.1889C2.19041 85.1061 27.5648 99.7379 27.5648 99.7379C27.5648 99.7379 28.8542 100.495 31.0368 99.435C31.2222 99.3424 31.3739 99.1657 31.4329 98.9638C32.1239 96.4817 31.3402 94.4287 31.3402 94.4287H31.3318Z" fill="#00833E"/>
<path d="M26.5452 95.5815L21.6406 92.7544V95.0346L26.5452 97.8616V95.5815Z" fill="#35353F"/>
<path d="M26.4021 95.6572V97.6177L24.6156 96.5828V94.6223L26.4021 95.6572Z" fill="#DA7D25"/>
<path d="M21.7839 92.9984L24.6154 94.6223V96.5827L21.7839 94.9504V92.9984Z" fill="white"/>
<path d="M0.698923 83.011L5.59514 85.8381V83.5579L0.698923 80.7308V83.011Z" fill="#35353F"/>
<path d="M0.833949 82.9353V80.9749L2.62895 82.0098V83.9618L0.833949 82.9353Z" fill="#DA7D25"/>
<path d="M5.45207 85.5941L2.62895 83.9618V82.0098L5.45207 83.6337V85.5941Z" fill="white"/>
<path d="M2.29162 72.9565L1.37304 72.4264C1.22978 72.3422 1.05281 72.3507 0.91798 72.4516C0.412346 72.8303 -0.674767 73.8231 0.589317 74.5467C2.18206 75.4638 27.5564 90.0956 27.5564 90.0956C27.5564 90.0956 28.9638 90.9202 31.3234 89.6413L29.461 88.6064L26.7474 87.7818L3.05849 74.1344L2.28319 72.9481L2.29162 72.9565Z" fill="#00AA51"/>
<path d="M7.08656 81.2693V81.9424L8.79729 80.9412V80.2428L7.08656 81.2693Z" fill="#01602E"/>
<path d="M31.3317 89.6412C28.9721 90.9201 27.5647 90.0956 27.5647 90.0956C27.5647 90.0956 0.76615 74.6476 0.597605 74.5466C0.167816 74.3026 0.0161381 74.025 0.0161381 73.7473V77.399C0.0161381 77.6766 0.167816 77.9543 0.597605 78.1983C1.06953 78.4759 3.67355 79.9736 7.08658 81.9425V81.2609L20.6544 89.0606V89.759C24.6068 92.0392 27.5647 93.7472 27.5647 93.7472C27.5647 93.7472 28.9721 94.5718 31.3317 93.2929C32.0733 92.0224 31.3317 89.6412 31.3317 89.6412Z" fill="#00833E"/>
<path d="M12.4209 83.4823L6.38705 79.9989V78.9893L12.4209 82.4726V83.4823Z" fill="#00AA51"/>
<path d="M6.38706 79.9989L7.24663 79.4857L6.38706 78.9893V79.9989Z" fill="#01602E"/>
<path d="M20.1067 87.908L14.0644 84.4246V83.4149L20.1067 86.8983V87.908Z" fill="#00AA51"/>
<path d="M14.0645 84.4246L14.9241 83.9113L14.0645 83.4149V84.4246Z" fill="#01602E"/>
<path d="M0.597464 75.6237C0.167676 75.3797 0.0159965 75.0936 0.0159965 74.8243V76.6418C0.0159965 76.9194 0.167676 77.1971 0.597464 77.4411C0.875563 77.6009 1.90369 78.1899 3.38689 79.0481V77.2307C1.70144 76.2547 0.631173 75.6405 0.597464 75.6237Z" fill="white"/>
<path d="M0.732303 77.3654C1.00197 77.5253 1.97111 78.0806 3.38689 78.8967V79.0566C1.89527 78.1984 0.875563 77.6094 0.597464 77.4495C0.167676 77.2055 0.00756097 76.9195 0.00756097 76.6502V76.2548C0.00756097 76.3894 0.0581248 76.9699 0.732303 77.3738V77.3654Z" fill="#00AA51"/>
<path d="M27.5648 91.1725C27.5648 91.1725 26.3512 90.4742 24.4383 89.3719V91.1894C26.3512 92.2916 27.5648 92.9899 27.5648 92.9899C27.5648 92.9899 28.5002 93.5368 30.1266 93.0488V91.2314C28.5002 91.7194 27.5648 91.1725 27.5648 91.1725Z" fill="white"/>
<path d="M24.5815 89.4477V91.1052L24.4379 91.1894V89.3719C24.4885 89.3972 24.5308 89.4224 24.5815 89.4561V89.4477Z" fill="#01602E"/>
<path d="M24.5815 91.1053C26.4945 92.2076 27.708 92.9059 27.708 92.9059C27.708 92.9059 28.6519 93.3266 29.9834 92.948L30.1351 93.0405C28.5086 93.5285 27.5732 92.9816 27.5732 92.9816C27.5732 92.9816 26.3597 92.2833 24.4467 91.1811L24.5899 91.0969L24.5815 91.1053Z" fill="#00AA51"/>
<path d="M30.1266 91.223V93.0404L29.9746 92.9479V91.2651C30.0253 91.2483 30.0759 91.2483 30.1266 91.2314V91.223Z" fill="#01602E"/>
<path d="M4.04389 48.8421L4.28886 48.6991L4.28042 53.8905L4.03543 54.0335L4.04389 48.8421Z" fill="#292930"/>
<path d="M2.30846 47.8493L2.56128 47.7063L4.28886 48.6991L4.04448 48.8422L2.30846 47.8493Z" fill="#656575"/>
<path d="M4.0446 48.8421L4.03617 54.0335L2.30016 53.0407L2.30858 47.8493L4.0446 48.8421Z" fill="#0A090D"/>
<path d="M4.04389 54.5384L4.28886 54.3954L4.28042 55.5313L4.03543 55.6743L4.04389 54.5384Z" fill="#C5C5C5"/>
<path d="M2.30846 53.5456L2.55286 53.4026L4.28886 54.3954L4.04448 54.5385L2.30846 53.5456Z" fill="#656575"/>
<path d="M4.0446 54.5385L4.03617 55.6744L2.30016 54.6731L2.30858 53.5457L4.0446 54.5385Z" fill="#0A090D"/>
<path d="M5.78881 58.6108C5.87308 58.6108 5.94893 58.5771 5.99949 58.5014C6.08377 58.3836 6.05849 58.2237 5.94051 58.1396L3.10896 56.0614V47.8662L5.41801 48.9432C5.55285 49.0021 5.70454 48.9432 5.76353 48.817C5.82252 48.6824 5.76354 48.5309 5.63713 48.472L2.95726 47.2183C2.87299 47.1847 2.78029 47.1847 2.70444 47.2352C2.6286 47.2857 2.58646 47.3698 2.58646 47.4539V56.196C2.58646 56.2801 2.6286 56.3559 2.69602 56.4063L5.62869 58.5603C5.67926 58.594 5.72983 58.6108 5.78039 58.6108H5.78881Z" fill="#292930"/>
<path d="M31.8372 88.9009V76.4988L34.3569 63.23L49.2647 54.7656V73.4361L45.1606 76.1033C42.978 77.5253 41.1661 79.4268 39.8683 81.6818C39.2953 82.6746 38.6295 83.8778 37.8964 85.2661L31.8456 88.9093L31.8372 88.9009Z" fill="#01602E"/>
<path d="M44.925 69.9022L44.6722 69.7844L41.7816 71.3915L42.0344 71.5429L44.925 69.9022Z" fill="#00AA51"/>
<path d="M42.0343 71.5429V72.3338L41.7809 72.1824V71.3915L42.0343 71.5429Z" fill="#00AA51"/>
<path d="M44.9249 69.9022V70.6931L42.0343 72.3338V71.5429L44.9249 69.9022Z" fill="#00833E"/>
<path d="M28.4329 88.4128V75.0011L30.9526 63.23C30.9526 63.23 32.6465 64.1976 34.3572 63.23L31.8375 76.4987V88.9009C31.8375 88.9009 29.5369 89.6833 28.4329 88.4128Z" fill="#00833E"/>
<path d="M1.36453 62.2792V72.2328C1.36453 72.8218 1.68477 73.3603 2.1904 73.6464L28.4328 88.4128V78.0132L1.36453 62.2792Z" fill="#00833E"/>
<path d="M28.4411 75.0011V78.0133C24.6657 76.5745 4.18753 64.307 2.69591 63.3563C2.10601 62.986 1.67621 62.6074 1.37283 62.2793C1.37283 60.1421 1.89533 58.6949 1.89533 58.6949L2.28297 59.6037L28.4411 75.0011Z" fill="#00AA51"/>
<path d="M28.4412 78.0132C28.4412 78.0132 30.1519 78.9051 31.8458 77.988V76.4903L32.1998 74.614C32.1998 74.614 30.7166 76.5071 28.4412 74.9926V78.0048V78.0132Z" fill="#00AA51"/>
<path d="M2.04699 58.2153L1.91217 58.6276C1.78576 58.9978 1.93744 59.4101 2.28296 59.6036L29.1237 75.4302C29.7557 75.8088 30.5816 75.447 30.7164 74.715L32.739 64.6856C32.9749 63.4488 32.0732 63.2553 30.9692 62.6495L2.05543 58.2069L2.04699 58.2153Z" fill="#0A090D"/>
<path d="M2.49385 59.3933L29.4694 75.2367C30.093 75.6153 30.9273 75.2451 31.0622 74.5215L31.2897 73.3941L33.0931 64.4921C33.3291 63.2637 32.4189 63.0618 31.315 62.456L12.0925 52.2078L5.26642 48.5646L2.05564 58.2153C1.91238 58.6613 2.08935 59.1409 2.50229 59.3849L2.49385 59.3933Z" fill="#202026"/>
<path d="M5.8732 48.8422L14.3763 53.6465L4.86194 59.0987L2.90681 57.1046L5.8732 48.8422Z" fill="#6A687D"/>
<path d="M2.04724 58.2154L2.68772 56.2802L6.05017 58.2238C6.05017 58.2238 9.64861 56.8607 12.2948 58.3584C16.9887 61.0088 14.3341 63.0197 18.2781 65.5607L22.1293 65.7711C22.8541 65.8131 23.5451 66.1076 24.076 66.6125L31.0201 73.1921L31.2813 73.3941L31.0538 74.5215C30.9189 75.2451 30.0931 75.6153 29.461 75.2367L2.48546 59.3933C2.07253 59.1493 1.89556 58.6697 2.03882 58.2238L2.04724 58.2154Z" fill="#34343E"/>
<path d="M28.2306 74.5047L29.2166 75.4891C30.2363 75.893 30.9274 75.2451 31.0622 74.5215L33.0847 64.4921C33.1943 63.9031 33.051 63.5413 32.7308 63.2721L32.6044 63.5413C32.6044 63.5413 32.8656 63.8527 32.7729 64.3491C32.6802 64.8539 30.7251 74.4037 30.7251 74.4037C30.7251 74.4037 30.4301 75.5985 29.2166 75.0516C28.8627 74.8917 28.5425 74.7403 28.2306 74.5215V74.5047Z" fill="#0A090D"/>
<path opacity="0.5" d="M13.7863 66.0403L15.8425 67.2519L24.5984 58.7791L22.4748 57.6516L13.7863 66.0403Z" fill="#6A687D"/>
<path opacity="0.5" d="M19.3735 69.2711L20.5786 69.9695L29.3429 61.5051L28.0704 60.8824L19.3735 69.2711Z" fill="#6A687D"/>
<path opacity="0.5" d="M6.7326 61.9089L10.803 64.2985L19.3987 56.0108L15.1767 53.7559L6.7326 61.9089Z" fill="#6A687D"/>
<path d="M28.1125 82.1866L28.1209 81.3957L2.44314 66.5956L1.72683 66.9742L28.1125 82.1866Z" fill="#00AA51"/>
<path d="M1.72673 66.9743L2.44304 66.5956L1.73516 66.1833L1.72673 66.9743Z" fill="#01602E"/>
<path d="M28.1124 84.5173L28.1208 83.7179L2.44302 68.9178L1.72671 69.3049L28.1124 84.5173Z" fill="#00AA51"/>
<path d="M1.72661 69.3049L2.44292 68.9179L1.73503 68.514L1.72661 69.3049Z" fill="#01602E"/>
<path d="M28.1124 86.8479L28.1208 86.0486L2.44302 71.2485L1.72671 71.6356L28.1124 86.8479Z" fill="#00AA51"/>
<path d="M1.72661 71.6356L2.44292 71.2486L1.73503 70.8363L1.72661 71.6356Z" fill="#01602E"/>
<path d="M49.2648 54.7656L34.357 63.2384C34.357 63.2384 32.9413 64.2228 30.9524 63.2384C30.9524 63.2384 6.0837 49.2881 5.25784 48.5729C5.25784 48.5729 5.40111 48.0597 5.91517 47.4539C5.96573 47.395 6.0163 47.3277 6.08371 47.2688C6.89273 46.4106 8.55288 45.0559 11.1063 43.5498C15.5391 40.9331 20.1319 38.4426 20.41 38.2911H20.4268L49.2817 54.774L49.2648 54.7656Z" fill="#00833E"/>
<path d="M49.2648 54.7656L47.7732 54.4795L34.2306 62.153C33.3542 62.6494 32.2755 62.6494 31.3991 62.1446L5.90673 47.4539C5.9573 47.395 6.00786 47.3277 6.07528 47.2688C6.88429 46.4106 8.54446 45.0559 11.0979 43.5498C15.5306 40.9331 20.1235 38.4426 20.4016 38.2911H20.4184L49.2732 54.774L49.2648 54.7656Z" fill="#00AA51"/>
<path d="M44.5372 59.5952V67.9755L33.2615 74.5888L34.7616 65.1821L44.5372 59.5952Z" fill="#34343E"/>
<path d="M33.3289 74.1428L44.1916 67.7734L44.5372 67.9754L33.2615 74.5887L33.3289 74.1428Z" fill="#00AA51"/>
<path d="M44.5372 59.5952V67.9755L44.1922 67.7735V59.7971L44.5372 59.5952Z" fill="#00833E"/>
<path d="M37.9044 68.0006L38.1493 67.8575L38.1324 73.0489L37.8875 73.192L37.9044 68.0006Z" fill="#292930"/>
<path d="M36.1689 66.9994L36.4133 66.8563L38.1493 67.8576L37.9049 68.0006L36.1689 66.9994Z" fill="#656575"/>
<path d="M37.9051 68.0006L37.8882 73.192L36.1522 72.1908L36.1691 66.9994L37.9051 68.0006Z" fill="#0A090D"/>
<path d="M37.8958 73.6969L38.1408 73.5538V74.6897L37.8958 74.8327V73.6969Z" fill="#292930"/>
<path d="M36.1605 72.6956L36.4133 72.5526L38.1409 73.5539L37.8965 73.6969L36.1605 72.6956Z" fill="#656575"/>
<path d="M37.8964 73.6969V74.8328L36.1604 73.8316V72.6957L37.8964 73.6969Z" fill="#0A090D"/>
<path d="M36.7083 75.6068C36.7673 75.6068 36.8263 75.5816 36.8768 75.5479C36.9358 75.4975 36.9695 75.4217 36.9695 75.346V66.604C36.9695 66.5114 36.919 66.4188 36.8347 66.3768L34.4835 65.0726C34.3571 65.0053 34.197 65.0474 34.1296 65.1736C34.0621 65.2998 34.1043 65.4597 34.2307 65.527L36.447 66.7554V75.0263L34.7953 74.7318C34.652 74.7066 34.5172 74.7991 34.4919 74.9421C34.4666 75.0852 34.5593 75.2198 34.7026 75.245L36.6661 75.59C36.6661 75.59 36.6999 75.59 36.7083 75.59V75.6068Z" fill="#292930"/>
<path d="M47.908 54.1261L14.3761 34.7993L22.2977 30.2642L55.8381 49.591L47.908 54.1261Z" fill="#E3E3E1"/>
<path d="M47.9079 54.1262V55.363L50.1833 54.0757L55.8379 54.5132V49.5911L47.9079 54.1262Z" fill="#939294"/>
<path d="M14.3762 34.7993V36.0278L47.9081 55.3629V54.1261L14.3762 34.7993Z" fill="#B4B3B5"/>
<path d="M39.5312 87.6725C40.0958 84.9211 42.2026 82.3044 43.8375 80.5291C45.1437 79.1155 48.8348 76.8269 50.2927 75.9519C50.672 75.7247 51.1523 75.7331 51.5147 75.9771C51.8602 76.2127 52.2563 76.524 52.4838 76.8522C52.922 77.5085 53.8406 79.7297 54.1187 82.4643L53.9333 82.5568C53.4277 78.3583 52.0877 76.9616 51.3714 76.5072C51.1186 76.3473 50.7984 76.3473 50.5456 76.5072C49.3995 77.1887 45.7673 79.3764 44.3937 80.7983C42.7588 82.4895 40.4245 85.6868 40.0115 88.1773C39.5986 90.6678 39.5227 95.8003 39.5227 95.8003L39.034 95.9434V94.9337C39.034 94.9337 38.975 90.4407 39.5396 87.6893L39.5312 87.6725Z" fill="#35353F"/>
<path d="M14.7806 74.9421V77.6178L14.6116 77.7356L14.6201 75.0599L14.7806 74.9421Z" fill="#01602E"/>
<path d="M14.6204 75.0599L14.612 77.7355L11.9827 76.1958V73.5538L14.6204 75.0599Z" fill="#00833E"/>
<path d="M14.7806 74.9421L14.6205 75.0599L11.9827 73.5538L12.1513 73.4445L14.7806 74.9421Z" fill="#00AA51"/>
</svg>
